<?xml version="1.0" encoding="utf-8"?>
<!-- Generator: Adobe Illustrator 20.1.0, SVG Export Plug-In . SVG Version: 6.00 Build 0)  -->
<svg version="1.1" id="Warstwa_1" xmlns="http://www.w3.org/2000/svg" xmlns:xlink="http://www.w3.org/1999/xlink" x="0px" y="0px"
	 viewBox="0 0 595.3 601" style="enable-background:new 0 0 595.3 601;" xml:space="preserve">
<style type="text/css">
	.st0{fill:#FFFFFF;}
</style>
<g>
	<path class="st0" d="M304,102.1c1.2,3,2.4,6.1,3.6,9.1c0.3,1.3,0.2,2.8,1.4,3.8c0.7,4.3,2.1,8.5,3.8,12.5c0.2,0.9,0.4,1.7,0.7,2.6
		c1.2,4,2.5,7.9,3.7,11.9c0.4,1.4,0.8,2.8,1.2,4.1c1.2,4.4,1.4,9.4,7.6,9.9c0.7,1,1.8,1.1,2.8,1.3c3.6,1.9,7.2,3.7,11.2,4.7
		c0.7,1,1.8,1.1,2.8,1.3c3.6,1.8,7.2,3.7,11.2,4.7c0.7,1,1.8,1.1,2.8,1.4c2.4,1.1,4.8,2.1,7.1,3.4c2.9,1.6,5.3,1.4,7.2-1.4
		c7.3-5.6,14.7-11.1,22-16.7c3.6-2.6,7.1-5.3,10.7-7.9c5.1-3.7,11.1-4.7,17.1-5.6c1.7,0.2,3.3,0.4,5,0.6c3.3,1.1,6.7,2.2,10,3.2
		c0.7,0.4,1.4,0.9,2.1,1.3c2.9,2.8,5.7,5.6,8.6,8.4c0.3,0.5,0.6,0.9,1,1.4c1.4,3.6,2.8,7.3,4.2,10.9c0.1,1.7,0.2,3.3,0.4,5
		c-0.5,11.4-5.5,20.1-14.7,26.9c-17,12.5-33.7,25.4-50.5,38.1c-2.7,0.9-5.3,1.7-8,2.6c-2.5,0.2-5,0.6-7.4,0.4
		c-5.9-0.5-11.8-1.3-17.7-2.1c-2.6-0.4-3.8,0-2.8,3c2.4,7,4.6,14.1,6.9,21.1c0,1.1,0,2.2,1,3c0.7,4.3,2.1,8.5,3.8,12.5
		c0.2,1.2,0.1,2.5,1.1,3.5c0.5,3.8,1.9,7.4,3.3,10.9c0.4,1.4,0.8,2.8,1.2,4.1c1,3.7,1.7,7.5,3.8,10.8c0.5,1,1,2.1,1.5,3.1
		c1.3,3.8,3,7.5,5.1,11c0.3,1.6,1,3.1,2,4.4c1.2,3.7,2.9,7.2,4.8,10.6c0.3,0.7,0.6,1.4,0.9,2.1c1.5,3.3,3.1,6.6,4.6,9.8
		c0.5,1,0.9,2.1,1.4,3.1c1.5,3.3,3.1,6.6,4.6,9.9c0.2,1.5,0.8,2.9,1.9,4c0.9,3.7,2.8,6.9,4.5,10.2c0.8,1.7,1.6,3.3,2.5,5
		c1.2,3.7,2.8,7.2,4.8,10.6c0.4,0.8,0.7,1.5,1.1,2.3c1.4,3.3,2.9,6.6,4.3,9.9c0.4,1.4,0.8,2.8,1.2,4.1c1.1,3.7,2.2,7.3,3.4,11
		c0.2,1.3,0.2,2.8,1.3,3.9c0.5,3.8,1.7,7.4,3.1,11c0.5,1.7,1,3.4,1.5,5.1c0.8,3.7,1.7,7.4,3.3,10.9c-0.1,1.5,0.3,2.8,1.2,4
		c0.8,4.3,2,8.4,3.7,12.4c0.2,0.9,0.4,1.8,0.6,2.7c1.4,4.6,2.8,9.2,4.2,13.7c0.3,1.3,0.7,2.6,1,3.8c0.6,4.5-0.1,8.9-0.9,13.3
		c-1.4,2.9-2.8,5.9-4.1,8.8c-2.8,3.7-6.1,7-9.7,10c-3.3,1.5-6.5,3-9.8,4.5c-5,1.1-10,1.5-15,1.2c-1.7-0.3-3.3-0.6-5-1
		c-3.3-1.7-6.7-3.4-10-5.1c-0.7-0.6-1.4-1.2-2-1.8c-2-2.6-4-5.3-6-7.9c-0.6-1.5-1.2-2.9-1.9-4.4c-0.8-3.5-1.7-7.1-2.5-10.6
		c-0.3-1.3-0.7-2.7-1-4c-1-4-1.9-8-2.9-12c0.2-1.5-0.5-2.7-1-4c-0.5-4.1-1.5-8.1-2.9-12c0.1-1.4-0.1-2.8-1-4
		c-0.3-4.2-1.4-8.2-2.8-12.1c-0.1-1.4,0-2.8-1-4c-0.5-4.5-1.5-8.8-3.1-13c-0.1-1.4,0.2-2.9-1.1-4c-1.5-3.4-3.8-6.2-6.1-9
		c-0.7-1.6-1.6-3.1-2.9-4.2c-1.6-3-3.5-5.8-5.8-8.4c-0.2-0.6-0.3-1.3-1.1-1.5c-1.6-3.3-3.8-6.2-6.2-9c-0.6-1.6-1.6-3-2.9-4.2
		c-1.8-2.6-3.6-5.2-5.3-7.8c-0.8-1.1-1.5-2.1-2.3-3.2c-1.6-2.5-3.3-4.9-4.9-7.4c-0.9-1.4-1.9-2.3-3.6-1.2c-1.9,0.5-3.8,1-5.6,1.5
		c-8.3,2.5-8.3,2.5-7.2,11.3c0.5,4.4,0.9,8.8,1.4,13.1c0.2,1.6,0.4,3.2,0.5,4.9c0.4,4.3,0.8,8.6,1.2,13c-0.2,1.7,0.2,3.4,0.7,5
		c-0.4,4.4,0.7,8.7,1.1,13c-0.1,1.7-0.2,3.5,0.7,5c-0.6,4.6,2.7,7.6,4.6,11.2c0.8,1.3,1.6,2.7,2.4,4c1.2,3.2,2.9,6.1,5,8.9
		c0.5,1,1.1,2.1,1.6,3.1c2,3.6,4.1,7.2,6.1,10.8c0.3,0.8,0.3,1.7,1.3,2.1c1.5,3.8,3.6,7.2,5.9,10.5c0.3,0.5,0.6,1.1,0.9,1.6
		c1.8,3.3,3.7,6.6,5.5,9.9c0.3,1.2,0.8,2.3,1.8,3c1.7,3.3,3.5,6.7,5.2,10c0.4,1.4,0.9,2.8,1.3,4.2c1,4.6,0.6,9.2,0.4,13.9
		c-1,2.7-2,5.3-3,8c-8.7,11.8-19.7,18.8-35.1,17.1c-5.4-0.6-10.1-2.8-14.9-5.1c-1.3-1-2.6-2.1-4-3.1c-1.8-2.3-3.6-4.6-5.3-6.9
		c-0.6-1-1.1-2-1.7-3c-1.4-4.1-3.4-8-5.7-11.7c-0.2-0.9-0.3-1.8-1.2-2.3c-1.1-3.6-2.9-6.9-4.9-10.1c-0.3-1.6-1-3-2.1-4.2
		c-1-3.1-2.4-6-4.2-8.7c-0.5-1-1-2.1-1.4-3.1c-1.6-3.4-3.3-6.8-4.9-10.1c-0.9-1.6-1.7-3.2-2.6-4.9c-1-3.2-2.5-6-4.2-8.9
		c-0.2-1.2-0.7-2.3-1.6-3.1c-1.6-3.8-3.3-7.7-4.9-11.5c-0.2-0.9-0.5-1.7-0.7-2.6c-1.3-4-2.5-7.9-3.8-11.9c-0.4-1.4-0.8-2.8-1.3-4.2
		c-1.4-4.4-2.8-8.7-4.1-13.1c-0.2-0.6-0.4-1.2-0.6-1.8c-1.1-3.7-2.3-7.4-3.4-11.2c-0.4-1.3-0.3-2.8-1.4-3.8
		c-0.7-4.3-2.1-8.5-3.8-12.5c-0.2-0.9-0.5-1.8-0.7-2.7c-1.2-4-2.5-7.9-3.7-11.9c-0.4-1.4-0.9-2.8-1.3-4.1c-1.4-4.3-2.7-8.6-4.1-12.9
		c-0.4-1.2-0.8-2.4-1.2-3.5c-0.6-3.3-1.6-6.5-2.9-9.5c-0.3-1.3-0.2-2.8-1.3-3.9c-0.8-4.3-2-8.4-3.8-12.4c-0.3-0.9-0.5-1.8-0.8-2.7
		c-1.2-4-2.4-7.9-3.6-11.9c-0.5-1.4-0.9-2.8-1.4-4.2c-1.1-4.3-2.1-8.6-4.1-12.6c0-1.4-0.1-2.7-1.1-3.8c-0.6-3.3-1.6-6.5-3-9.6
		c-0.2-1.4-0.3-2.8-1.3-3.9c0-1.8-0.6-3.5-1.8-5.4c-7.8,5.9-15.6,11.5-22.9,17.7c-4.4,3.7-9,6.8-14.2,8.9c-2.3,0.4-4.7,0.7-7,1.1
		c-4.3-0.4-8.7-0.7-13-1.1c-1.6-0.3-3.1-0.5-4.7-0.8c-4.4-0.5-8.8-1.1-13.2-1.6c-1.3-0.9-2.7-0.7-4.1-0.6c-4.3-0.6-8.6-1.2-12.9-1.8
		c-1.7-0.2-3.3-0.4-5-0.6c-4.3-0.9-8.7-1.7-13.2-1.7c-1.2-0.9-2.6-1-4-1c-2.9-1.4-5.9-2.7-8.8-4.1c-0.9-0.7-1.8-1.4-2.8-2.1
		c-2.2-2.6-4.4-5.2-6.6-7.8c-0.6-1-1.2-2-1.7-3c-1.2-4-2.3-7.9-2.6-12.1c0.1-2,0.2-3.9,0.3-5.9c3.2-14.2,12.2-22.6,26.2-26
		c1.7,0,3.3-0.1,5-0.1c4.3,0.5,8.6,1,12.9,1.4c1.6,0.9,3.4,0.7,5.1,0.7c4.3,1.1,8.6,1.6,13,1.8c1.7,0.3,3.4,0.5,5,0.8
		c1.5,0.2,3,0.2,4.4,0.7c4.7,1.6,7.8,0.1,11-3.8c9.1-11,18.5-21.8,28.1-32.3c3.5-3.8,4.3-7.1,1.6-11.3c-0.1-1.1,0-2.2-0.9-3
		c-1.2-4-2.3-7.9-3.5-11.9c-0.5-1.4-0.9-2.8-1.4-4.1c-1-4.3-2-8.6-4-12.6c0-1.4-0.1-2.7-1.1-3.8c-0.8-3.5-1.6-7-2.4-10.4
		c-0.1-1.7-0.1-3.4-0.2-5c0.2-7.6,3.7-14.1,6.2-21c0-1.7-0.1-3.3-0.1-5c0.7-5.7,1.5-11.3,2.2-17c0.7-2.3,1.5-4.6,2.2-6.9
		c7-16,17.6-28.8,33.6-36.5c18.6-8.8,37.4-9.1,56.4-1c1.2,0.5,2.5,0.9,3.7,1.4c1.3,0.7,2.6,1.5,3.9,2.2c2.7,1.9,5.4,3.8,8.1,5.7
		c0.6,1.1,1.5,1.8,2.7,2.1c2.4,2.6,4.9,5.2,7.3,7.9c0.6,0.7,1.1,1.4,1.7,2.1c2.7,3.5,3.6,8.4,8.1,10.4c0.7,0.5,1.4,1,2.1,1.5
		c2.2,2.4,4.3,4.8,6.5,7.2C302.3,99.5,303.1,100.8,304,102.1z M70.4,268.2c-0.5,1.7-0.3,3.3,0.7,4.8c0.4,4.3,2.6,7.5,6.1,9.9
		c1.3,1.5,2.9,2.5,4.9,2.9c15.9,3.8,14.9,4.7,19.4-10c1.2-3.8,1.7-7.8,1.2-11.8c0.3-1.7,0.3-3.4-0.5-5c0.6-4.7-0.7-7.7-6.1-7.5
		c-1,0-2-0.2-2.9-0.3c-1.7-0.1-3.3-0.2-5-0.3C78.1,251.2,71.6,257.6,70.4,268.2z M250,188.9c-6,1.1-11.9,2.2-18,2.5
		c-1.3,0-2.7-0.1-4-0.1c-4.3-0.5-8.6-1-12.9-1.5c-1.1-1-2.6-0.9-3.9-1.1c-2.9-2-5.2-1.3-7.8,1c-7.9,6.9-15.4,14.1-22.2,22.1
		c-3.6,4.3-3.7,4.3,1.8,6.5c0.7,0.4,1.4,0.7,2.1,1.1c5.8,3.5,5.7,3.5,2.7,9.6c-0.6,1.3-1.2,2.7-1.8,4c-1.1,1.9-2.3,3.8-3.2,5.8
		c-0.9,2.1-2.2,1.7-3.7,1.2c-3.2-2-6.4-3.8-10-5c-3.3-3.1-5.9-3.1-9,0.9c-5.6,7.1-11.9,13.7-17.9,20.5c-2.9,1.3-5.9,0.6-8.9,0.2
		c-5.6-0.7-11.2-1.6-16.8-2.4c-1.8-0.3-3.1-0.5-2.8,2.3c1.3,10.7,0.4,21.3-4.1,31.3c-0.7,1.6-0.8,2.6,1.4,2.4c1.6,1,3.3,0.8,5.1,0.7
		c4.3,1.1,8.6,1.5,13,1.9c1.6,0.2,3.2,0.5,4.8,0.7c4.4,0.6,8.7,1.7,13.2,1.5c1.7,0.7,3.3,0.3,5-0.2c3.5-0.2,6.2-2.2,8.8-4.2
		c10.4-8,20.7-16.1,31.1-24.2c1.9-1.5,3.8-2.6,6.1-3.2c1.4,0.5,2.7,1,4.1,1.6c2.2,2.3,2.2,5.6,3.8,8.2c0,1.4,0.3,2.8,1.3,3.9
		c0.8,4.2,2,8.2,3.8,12.1c0.1,1.1,0,2.2,1,3c0.6,3.8,1.9,7.4,3.3,10.9c0.2,1.8,0.7,3.5,1.7,5.1c0.6,3.8,1.9,7.4,3.3,10.9
		c0.4,1.4,0.8,2.8,1.2,4.2c1.2,3.6,2.4,7.2,3.5,10.9c-0.1,1.5,0.4,2.8,1.2,4c1.1,3.7,2.2,7.5,3.4,11.2c0.5,1.3,0.3,2.8,1.4,3.8
		c0.7,4.3,2.1,8.5,3.8,12.5c0.2,0.9,0.5,1.8,0.7,2.6c1.2,4,2.5,7.9,3.7,11.9c0.4,1.4,0.9,2.8,1.3,4.2c1.4,4.3,2.7,8.6,4.1,12.8
		c0.4,1.2,0.8,2.4,1.2,3.6c0.6,3.3,1.6,6.5,3,9.6c0.8,7.6,4.6,1.7,7.1,1.5c7-2.3,14.1-4.5,21.1-6.8c4.4-0.6,8.8-1.3,13.2-1.8
		c1.5-0.2,2.5-0.4,2.2-2.3c-0.6-3.2,0-6.6-1.3-9.7c0.3-4.7-0.6-9.3-1.2-14c0.1-1.7,0.2-3.5-0.7-5.1c-0.1-8.4,0.3-9,8.4-11.5
		c2.2-0.7,4.3-1.6,6.5-2.3c2.5-0.2,4.8-0.9,7-2.1c4.7-0.4,9.1-4.2,14-1c0.6,0.7,1.2,1.4,1.8,2.1c1.7,3.2,3.8,6.2,6.2,9
		c0.6,1.6,1.6,3.1,3,4.2c1.3,2.9,3.3,5.3,5.3,7.7c0.9,1.3,1.9,2.7,2.8,4c0.7,2.2,1.8,2.9,4,1.5c6.7-4.2,14-7,21-10.5
		c5.6-1.5,11.2-3,16.9-4.6c-0.9-3-2.1-5.8-3.9-8.4c-0.9-3.6-2.8-6.9-4.5-10.2c-0.8-1.7-1.6-3.3-2.4-5c-1.1-3.7-2.8-7.2-4.8-10.5
		c-0.2-0.9-0.2-1.8-1.1-2.4c-1-3.5-2.7-6.7-4.4-9.9c-0.5-1-1-2.1-1.6-3.1c-1.2-4-3.1-7.7-5-11.3c-0.2-0.9-0.5-1.8-0.7-2.7
		c-1.2-4-2.4-7.9-3.6-11.9c-0.4-1.4-0.9-2.8-1.3-4.2c-1.4-4.4-2.7-8.7-4.1-13.1c-0.2-0.6-0.4-1.2-0.6-1.8c-1.1-3.7-2.2-7.5-3.3-11.2
		c-0.5-1.3-0.3-2.8-1.4-3.8c-0.5-3.8-1.9-7.4-3.2-11c-0.2-1.8-0.7-3.5-1.7-5.1c-0.6-3.8-1.8-7.4-3.3-10.9c0.1-1.6,0.2-3.3,0.3-4.9
		c1-1,1.9-2,2.9-2.9c2-0.1,4-0.2,6-0.3c4.3,0.6,8.6,1.5,13,1.3c1.2,0.9,2.6,0.8,4,0.7c4.7,0.3,9.2,2.6,14,1.2
		c2.3,0.4,4.5-0.3,6.2-1.5c10.6-7.7,21-15.6,31.8-23.6c-3-2.3-5.3-4.1-7.6-6c-2.4-2.7-4.7-5.3-7.1-8c-0.4-1.2-1-2.2-2.1-2.9
		c-1.7-3.3-3.4-6.6-5.1-9.9c-0.4-3.6-2.1-0.9-2.8-0.4c-5.8,4.2-11.4,8.6-17.1,12.9c-4.6,1.6-7.9-2.2-12-2.9c-1-0.5-2.1-0.9-3.1-1.4
		c-10.8-5.5-11-5.5-16.1,5.1c-1.7,3.6-3.5,4.7-6.9,2.7c-1-0.6-2-1.2-3-1.7c-3-1.4-5.9-2.9-8.9-4.3c-0.7-0.7-1.4-1.3-2-2
		c1.1-2,2.3-4,3.3-6.1c3.7-7.3,3.7-7.3-4.4-9.8c-1.1-1.1-2.5-1.5-4-1.8c-3.7-2-7.7-3.1-12-3.1c-1.2-0.8-2.6-1-4-0.8
		c-3.3,0.2-7.1-3-9.7,0.6c-7.9,10.9-18.3,18.6-30.3,24.4C255.3,187.1,252.7,188,250,188.9z M266.9,79c-1-1.4-2.3-2.4-3.9-3.2
		c-2.3-2.2-4.9-3.9-7.9-4.9c-1.2-1.1-2.6-1.7-4.2-1.9c-3.7-2.2-7.7-3-11.9-3.6c-1.7-0.2-3.4-0.3-5.1-0.5c-5.4-0.8-10.8-0.4-16,1.2
		c-2.9,0.2-5.6,1.1-8.1,2.5c-14.4,5.7-24.4,15.8-30,30.3c-1.4,2.1-2.1,4.4-2.2,6.9c-2.1,5.5-2.2,11.3-1.7,17.1
		c-0.2,1.7-0.2,3.5,0.4,5.1c0.4,4.2,1.3,8.2,3.2,12c2,6.3,5.5,11.6,10.2,16.1c1.9,2.8,4.3,5,7.1,6.7c4.9,4.5,10.5,7.5,16.9,9.2
		c4.2,1.8,8.5,2.9,13.1,2.7c1.7,0.5,3.3,0.5,5,0.2c6.7,0.3,13.1-0.9,19.1-4c14.1-5.3,23.5-15.2,28.9-29.1c5.8-12.3,6.2-25,2.8-38
		c-2-6.7-4.7-13.1-9.6-18.4C271.6,83,269.5,80.8,266.9,79z M374.9,383.7c-5.1,1.3-9.8,3.8-14.5,6.1c-8.7,4.4-8.7,4.4-2.4,12.1
		c0.7,1.6,1.6,3.1,2.9,4.2c1.6,3.1,3.6,5.8,5.8,8.4c0.7,1,1.3,2,2,2.9c1,3.5,2,7.1,3,10.6c0.1,1.4,0,2.8,0.9,4
		c0.8,3.6,1.6,7.3,2.5,10.9c0.4,1.7,0.8,3.4,1.2,5.2c0.8,3.4,1.6,6.7,2.3,10.1c0.4,2.2,1.5,2.7,3.4,1.7c2.4,0.3,4.5-0.6,6.7-1.2
		c6.1-1.2,11.8-3.3,17.5-5.8c10.1-4.4,10.1-4.5,7-14.9c-0.5-1.7-1.1-3.5-1.7-5.2c-0.2-0.6-0.4-1.3-0.6-1.9c-0.8-4.1-2-8.2-3.7-12.1
		c-0.1-1.1,0-2.2-0.9-3c-0.9-4.2-1.6-8.4-4.2-12c-0.2-1.6-0.9-3-1.9-4.3c-1.1-3.7-2.9-7.2-4.8-10.6c-0.3-0.7-0.7-1.5-1-2.2
		c-3-8.1-3.1-8.2-11.4-5.7C380.2,381.6,377.4,382.3,374.9,383.7z M425.1,154.9c-6.8-2.3-12.2,0.7-17.3,4.7
		c-8.4,6.5-8.6,7.2-3.2,16.3c0.1,0.1,0.3,0.2,0.4,0.3c0.2,1.3,0.9,2.3,1.9,3.1c1.7,3.3,4.1,5.9,7,8.1c0.8,1.2,1.7,2.2,3.1,2.7
		c3.3,4.1,6.6,4.7,10.5,0.6c1.6-1.7,3.7-2.8,5.4-4.3c5.9-5.1,7.8-12.2,5.3-19.7c0-1.7-0.7-3.1-1.9-4.2c-1.8-3.3-4.4-5.7-8.2-6.6
		C427.3,154.8,426.2,154.9,425.1,154.9z M283,415.9c-6.5,0.5-12.6,2.7-18.6,4.9c-11.3,4.2-11.3,4.2-7.7,15.4
		c0.4,1.3,0.9,2.5,1.4,3.7c0.1,1.8,0.7,3.5,1.7,5.1c0.6,3.8,1.9,7.4,3.3,10.9c0.2,1.6,0.9,2.9,1.9,4c1.2,3.6,2.8,6.9,4.9,10
		c0.3,1.6,0.9,2.9,2,4.1c1.4,3,2.8,5.9,4.2,8.9c0.3,1.2,0.7,2.3,1.6,3.1c4.7,11,2.9,9.4,12.2,5.9c7.4-1.8,14.3-5,21-8.6
		c6.8-3.7,6.7-3.7,2.8-10.5c-0.8-1.4-1.8-2.8-2.7-4.1c-1.2-3.2-2.9-6-4.9-8.8c-0.4-1.5-1.1-2.8-2.2-3.9c-1.3-3.2-3-6.2-5-8.9
		c-0.2-1.2-0.8-2.3-1.7-3.1c-1.6-3.8-0.7-8.1-2-12c-0.1-1.6-0.3-3.3-0.4-4.9c-0.2-2.7-0.7-5.5-0.6-8.2c0.2-4.2-1.4-5.3-5.2-3.7
		C286.9,414.9,284.9,414.8,283,415.9z M395,469.3c-2.1,0.5-4.2,0.9-6.3,1.4c-7.5,1.6-7.5,1.6-4.7,9.3c0.5,4.1,1.4,8.1,2.8,12
		c0,1.4-0.1,2.8,1,4c0.2,4.1,1.8,7.4,5,10c1,1.6,2.3,2.5,4.1,3c4.9,2.7,9.9,2.6,15,0.9c7.9-2,13.1-6.8,15.2-14.9
		c2.2-4.9,0.2-9.5-1.4-14c-0.4-1.4-0.8-2.8-1.3-4.2c-1.1-3.6-2.3-7.3-3.4-10.9c0-1.4-0.2-2.8-1.2-3.9c0.1-2.9-1.4-2.4-3.1-1.5
		C409.9,464.3,402.5,466.9,395,469.3z M307,538c4.7,2.7,9.7,3.8,15,1.9c9.1-1.8,15.6-8.6,16.3-17c0.9-4.5-0.6-8.4-3.3-12
		c-0.2-1.2-0.8-2.3-1.8-3.1c-1.5-3.8-3.6-7.3-5.9-10.6c-0.2-0.5-0.5-1-0.7-1.5c-0.8-1.5-1.6-2.9-2.2-4.4c-0.8-1.7-1.7-2.2-3.4-0.9
		c-4.9,3.6-10.7,5.7-16,8.6c-5.9,2.1-11.9,4.1-17.9,6.2c1.1,2.8,2.1,5.4,3.9,7.6c1.4,4.2,3.5,8,5.7,11.8c0.2,0.8,0.2,1.8,1.2,2.3
		c1.1,3.6,2.6,6.9,6,9C304.6,537.2,305.6,537.9,307,538z M195.2,178.5c-2.5-1.9-4.8-3.5-6.9-5.3c-2.2-1.8-4.3-3.7-6.2-5.8
		c-2-2.2-3.9-4.5-5.7-6.9c-1.5-1.9-2.8-3.9-4.2-5.9c-0.3,0.3-0.6,0.7-0.9,1c3.6,11.4,7.2,22.8,10.9,34.6
		C186.7,186.1,190.9,182.3,195.2,178.5z M298.6,125.4c-0.9,4.7-1.8,8.2-2.3,11.8c-0.5,3.2-3.8,7.2-1.9,9.1c2,2,6.5,1.4,10,1.9
		c0.3,0,0.6-0.2,1.2-0.4C303.3,140.6,301.1,133.4,298.6,125.4z"/>
	<path class="st0" d="M490.4,267.8c-1.6,2.8-3.8,5-6.4,6.9c-5,2.1-10,2-14.9-0.1c-0.5-0.3-0.9-0.6-1.4-1c-2.6-2.5-4.7-5.3-5.8-8.7
		c-0.1-1.7-0.3-3.4-0.4-5c1.5-8.1,6.6-12.6,14.5-14c1.7,0.3,3.3,0.6,5,0.8c2.6,0.9,4.8,2.6,6.9,4.2c1,1.5,1.9,2.9,2.9,4.4
		C491.9,259.6,492.1,263.7,490.4,267.8z"/>
	<path class="st0" d="M110.4,390.9c-1.8-13.1,4.8-20.3,18-19.6c1.5,0.6,3,1.2,4.5,1.9c2.9,2.3,5.1,5.3,6.8,8.6
		c0.1,0.8,0.3,1.5,0.4,2.3c-0.6,11.8-5.4,16.7-17.1,17.3c-1.3-0.4-2.7-0.7-4-1.1c-3.2-1.7-5.6-4.1-7.6-7
		C111,392.4,110.7,391.6,110.4,390.9z"/>
	<path class="st0" d="M525.8,201.5c1.3,9.6-3.1,13.7-12.3,11.3c-0.8-0.6-1.5-1.2-2.3-1.8c-1.9-3.6-2.8-7.1-0.1-10.7
		c2.7-3.6,6.4-3.7,10.3-3C522.9,198.6,524.4,200.1,525.8,201.5z"/>
	<path class="st0" d="M170.8,448.1c0.2,1.6,0.3,3.3,0.5,4.9c-1,3.8-3.6,6-7.2,7.1c-1.6-0.3-3.2-0.5-4.7-0.8
		c-2.6-1.4-4.1-3.7-5.1-6.4c0.4-2,0.7-3.9,1.1-5.9c0.9-1,1.9-2,2.8-3c2-0.4,4-0.8,6-1.2C167,443.7,169.2,445.5,170.8,448.1z"/>
	<path class="st0" d="M227.4,279.8c-0.4-1.3-0.2-2.8-1.4-3.8c-0.5-3.8-1.9-7.4-3.2-11c-0.3-1.8-0.6-3.5-1.7-5
		c-0.5-3.8-1.9-7.4-3.3-11c-0.3-1.3-0.7-2.7-1-4c0.3-8.6,6.9-10.5,13.3-12.7c2.4-0.3,4.7-0.9,6.9-2.1c7.5-1.8,14.9-4.2,22.1-6.8
		c2.4-0.4,4.7-0.9,6.9-2.2c7.1-1.7,14.1-4,21-6.4c2.7-0.8,5.3-1.7,8-2.5c4.1-1.3,8.1-1.6,12,0.7c1,1.1,1.9,2.1,2.9,3.2
		c1.1,3.3,2.2,6.5,3.2,9.8c0.4,1.4,0.8,2.8,1.2,4.2c1.2,3.6,2.3,7.2,3.5,10.8c0,1.5,0.3,2.8,1.2,4c0.8,4.2,2,8.2,3.7,12
		c0.1,1.1,0,2.2,0.9,3c1.7,10.5,0.1,13-10.1,16.2c-3.3,1-6.6,2.2-9.8,3.3c-2.4,0.4-4.7,0.9-6.9,2.2c-7.5,1.8-14.9,4.2-22.2,6.8
		c-2.3,0.7-4.6,1.4-6.8,2.2c-7,2.2-14,4.3-21,6.5c-2.3,0.4-4.7,0.8-7,1.2c-3.2-0.4-5.6-2.3-7.8-4.4c-0.5-1-0.9-2-1.4-2.9
		C229.7,287.3,228.6,283.6,227.4,279.8z M243,241c-2.1,0.5-4.2,0.9-6.2,1.6c-8.3,2.5-8.3,2.5-5.1,10.6c0.9,4.4,2.3,8.7,4,12.9
		c0.2,0.7,0.4,1.4,0.6,2c1.2,3.7,2.3,7.4,3.5,11.1c0.3,1.3,0.2,2.8,1.3,3.9c-0.2,2.7,1,3.7,3.6,2.7c5.8-2,11.6-3.9,17.4-5.8
		c2.5-0.2,4.8-1,7-2.1c7.4-2,14.8-4,22-6.9c3.8-1,7.6-2,11.4-3.1c11.5-3.5,11.5-3.5,6.5-14.9c-0.7-4.2-2-8.2-3.7-12.1
		c-0.1-1.1,0-2.2-0.9-3c-1.2-4-2.3-7.9-3.5-11.9c-1.9-5.6-4.9-0.7-7.5-0.8c-7.1,2.1-14.4,3.9-21.3,6.8c-2.5,0.2-4.8,1-7,2
		C257.6,236.1,250.1,238.1,243,241z"/>
	<path class="st0" d="M277.9,184.4c1,0.6,2.1,1.1,3.1,1.7c2.1,2.6,3.3,5.5,2.8,8.9c-1.5,3-3.4,5.4-6.9,6.3c-3.5,0.4-6.4-0.9-8.9-3.3
		c-0.4-1-0.9-2-1.3-3C266.9,186.8,270.1,183.8,277.9,184.4z"/>
	<path class="st0" d="M239.8,199.1c0.7,1,1.5,2,2.2,2.9c0.9,9.5-2.8,13.1-11.9,11.5c-0.7-0.5-1.4-1-2.2-1.4
		c-2.8-3.4-3.5-7.1-1.5-11.1c0.8-0.9,1.7-1.8,2.5-2.7C232.8,196.3,236.4,196.7,239.8,199.1z"/>
	<path class="st0" d="M256,86c1,0.6,2,1.1,3,1.7c2.3,1.8,4.5,3.6,6.8,5.4c4,5.1,6.2,10.9,8.2,16.9c1,7.8,1.1,15.5-1.5,23.1
		c-5.3,15.5-16.3,24.9-31.6,29.7c-2,0.2-4.1,0-6,1c-4.7-0.2-9.3-0.5-14-0.7c-6-2-11.8-4.3-17-7.8c-2.3-2.1-4.7-4.2-7-6.3
		c-3.6-4.6-6.3-9.8-8.9-15c-0.7-4.3-1.4-8.6-2.1-13c0.3-2,0.6-4,0.8-6c3.4-11.2,11.4-18.3,21.5-23.3c1.6-0.8,3.2-1.7,4.7-2.5
		c2.6-0.8,5.3-1.7,7.9-2.5c5.6-1.5,11.3-2.7,17.1-3.1c2,0,4,0,6,0C248,84.3,252,85.1,256,86z M253.6,125.1
		c1.1,9.5-1.5,18.1-7.7,25.9c11.6-1.6,21.1-19,19.9-35.1c0.5-2.5-0.6-4.9-0.8-7.3c-0.1-1.4-0.8-2.3-2.3-1.6c-4.1,2-8.6,3.7-12,6.6
		c-0.9,0.8,1.3,5.3,2.1,8.1C253.1,122.9,253.3,124,253.6,125.1z M261.1,98.4c-1.9-2.6-4.7-4.6-7.6-6.6c-1.9-1.3-2.8-0.9-3.8,1
		c-1.8,3.6-3.5,7.2-5.7,10.5c-1.9,2.9,0.3,3.7,1.7,5.2c1.7,1.6,3,2.2,5,0.2c2.7-2.7,5.7-5.1,8.6-7.6C260,100.4,261,99.9,261.1,98.4z
		"/>
</g>
</svg>
