<?xml version="1.0" encoding="utf-8"?>
<!-- Generator: Adobe Illustrator 20.1.0, SVG Export Plug-In . SVG Version: 6.00 Build 0)  -->
<svg version="1.1"
	 id="svg4475" xmlns:cc="http://creativecommons.org/ns#" xmlns:dc="http://purl.org/dc/elements/1.1/" xmlns:inkscape="http://www.inkscape.org/namespaces/inkscape" xmlns:rdf="http://www.w3.org/1999/02/22-rdf-syntax-ns#" xmlns:sodipodi="http://sodipodi.sourceforge.net/DTD/sodipodi-0.dtd" xmlns:svg="http://www.w3.org/2000/svg"
	 xmlns="http://www.w3.org/2000/svg" xmlns:xlink="http://www.w3.org/1999/xlink" x="0px" y="0px" viewBox="0 0 32 32"
	 style="enable-background:new 0 0 32 32;" xml:space="preserve">
<style type="text/css">
	.st0{fill:#FFFFFF;}
</style>
<g id="layer1" transform="translate(0,-1020.3622)">
	<g id="g10414" transform="translate(309.5948,-461.25192)">
		<g id="g15415" transform="translate(66.405195,515.25192)">
			<g id="g15417" transform="translate(-150,-49.999983)">
				<g id="g14600" transform="translate(-49.999995,-130.00002)">
					<path id="path11038" class="st0" d="M-157.1,1146.4c-0.3,0-0.5,0.3-0.4,0.6c0,0.3,0.3,0.5,0.6,0.4c0,0,0,0,0,0
						c4.7,0,8.5,3.7,8.5,8.2c0,0.3,0.2,0.5,0.5,0.5c0.3,0,0.5-0.2,0.5-0.5c0,0,0,0,0,0c0-5.1-4.2-9.2-9.5-9.2
						C-157,1146.4-157.1,1146.4-157.1,1146.4z M-165,1147.9c-0.1,0-0.1,0.1-0.2,0.1c-2.8,2.8-4,6.8-2.9,10.6c0.6,2,1.7,3.8,3.2,5.2
						c-0.4,0.9-0.2,2,0.5,2.8v4.1c0,0-0.1,0-0.1,0c0,0,0,0-0.1,0c-0.9,0.6-1.5,1.6-1.6,2.6h-3.9c0,0,0,0,0,0c-0.1,0-0.2,0.1-0.3,0.2
						l-2,1.9c-0.1,0.1-0.2,0.2-0.2,0.4v2c0,0.3,0.2,0.5,0.5,0.5h2c0.3,0,0.5-0.2,0.5-0.5v-0.3l1.3-1.2h10.8l1.3,1.2v0.3
						c0,0.3,0.2,0.5,0.5,0.5h2.1c0.3,0,0.5-0.2,0.5-0.5v-2c0-0.1-0.1-0.3-0.2-0.4l-2.1-1.9c-0.1-0.1-0.2-0.2-0.3-0.2h-3.9
						c-0.1-1.1-0.7-2.1-1.6-2.6c0,0,0,0,0,0c0,0-0.1,0-0.1-0.1v-3.7c0.3-0.2,0.6-0.4,0.8-0.7c0.1,0,0.3,0.1,0.4,0.2
						c3.9,1,8-0.1,10.9-2.9c0.2-0.2,0.2-0.5,0-0.7c0,0,0,0,0,0l-6-5.8c0.3-0.5,0.4-1.1,0.2-1.7c-0.2-0.8-0.9-1.4-1.7-1.6
						c-0.3-0.1-0.7-0.1-1.1-0.1c-0.2,0-0.4,0.1-0.6,0.2l-6.2-6C-164.6,1147.9-164.8,1147.8-165,1147.9z M-164.8,1149.1l5.8,5.6l0,0
						c0,0,0,0,0,0c0,0.2,0.2,0.4,0.4,0.4l1,1l1.1,1.1c0,0,0,0,0,0.1c0.1,0.1,0.2,0.2,0.3,0.3c0,0,0,0,0.1,0l5.7,5.6
						c-2.6,2.3-6.1,3.2-9.6,2.3c-3.5-0.9-6.3-3.7-7.3-7.2C-168,1155.1-167,1151.6-164.8,1149.1z M-157,1149.1
						c-0.3,0-0.5,0.3-0.5,0.5s0.3,0.5,0.5,0.5c3.1,0,5.7,2.4,5.7,5.4c0,0.3,0.2,0.5,0.5,0.5c0.3,0,0.5-0.2,0.5-0.5c0,0,0,0,0,0
						C-150.3,1152-153.3,1149.1-157,1149.1C-157,1149.1-157,1149.1-157,1149.1z M-157,1151.9c-0.3,0-0.5,0.2-0.5,0.5
						c0,0.3,0.2,0.5,0.5,0.5c1.6,0,2.7,1.2,2.7,2.7c0,0.3,0.2,0.5,0.5,0.5c0.3,0,0.5-0.2,0.5-0.5c0,0,0,0,0,0
						C-153.3,1153.6-154.9,1151.9-157,1151.9C-157,1151.9-157,1151.9-157,1151.9z M-157.5,1154.7c0.2,0,0.4,0,0.7,0.1
						c0.5,0.1,0.8,0.5,0.9,0.8c0.1,0.3,0.1,0.5,0,0.7l-0.9-0.9L-157.5,1154.7z M-164.1,1164.5c0.8,0.6,1.6,1.1,2.5,1.4
						c-0.5,0.4-1.2,0.5-1.8,0.2C-163.9,1165.8-164.2,1165.2-164.1,1164.5z M-163.4,1167.2c0.3,0.1,0.7,0.1,1.1,0.1v3
						c-0.2,0-0.3,0-0.5,0c-0.2,0-0.4,0-0.6,0.1V1167.2z M-162.8,1171.3c0.4,0,0.8,0.1,1.2,0.3c0.6,0.4,1,1.1,1.1,1.8h-4.6
						c0.1-0.7,0.5-1.3,1.1-1.8C-163.6,1171.4-163.2,1171.3-162.8,1171.3z M-169.8,1174.4h13.9l1.8,1.7v1.3h-1.1v0
						c0-0.1-0.1-0.3-0.2-0.4l-1.6-1.5c-0.1-0.1-0.2-0.1-0.3-0.1h-11.1c-0.1,0-0.2,0-0.3,0.1l-1.6,1.5c-0.1,0.1-0.2,0.2-0.2,0.4v0h-1
						v-1.3L-169.8,1174.4z"/>
				</g>
			</g>
		</g>
	</g>
</g>
</svg>
