<?xml version="1.0" encoding="utf-8"?>
<!-- Generator: Adobe Illustrator 20.1.0, SVG Export Plug-In . SVG Version: 6.00 Build 0)  -->
<svg version="1.1" id="Warstwa_1" xmlns="http://www.w3.org/2000/svg" xmlns:xlink="http://www.w3.org/1999/xlink" x="0px" y="0px"
	 viewBox="0 0 375 423" style="enable-background:new 0 0 375 423;" xml:space="preserve">
<style type="text/css">
	.st0{fill:#0170B9;}
	.st1{fill:#FEFEFE;}
	.st2{fill:#29A8DE;}
	.st3{fill:#CECECE;}
</style>
<g>
	<path class="st0" d="M5.9,16.6c0-3,0-5.9,0-8.9c2.7-2.2,6-1.5,9.1-1.5c102.5,0,205,0,307.5,0c12.9,0,25.7-0.1,38.6,0
		c6.4,0,6.6,0.4,6.3,6.6c-1.2,29.5-4.8,58.8-7.2,88.2c-2.3,27.8-4.8,55.5-7.3,83.3c-2.5,27.6-5,55.2-7.4,82.8
		c-2.2,24.1-4.4,48.3-6.4,72.4c-0.8,10.5-2,21-2.9,31.5c-0.4,4.3-2.9,5.9-6.5,6.9c-14.3,4.1-28.6,8.1-42.9,12.1
		c-29.7,8.3-59.4,16.7-89.1,25c-7.9,2.2-15.4,2.1-23.3-0.1c-43-12.1-86-24.5-129.2-36.3c-5.4-1.5-8.1-4.2-8.6-9.8
		c-1.3-16.8-3-33.5-4.5-50.3c-1.8-20.7-3.8-41.4-5.5-62.1c-1.7-20.7-3.8-41.4-5.5-62.1c-1.3-16.1-3-32.2-4.4-48.3
		c-1.4-16.6-3-33.2-4.4-49.8c-1.4-16.8-2.9-33.5-4.5-50.2C7,37.4,7.1,28.6,6.4,19.9C6.4,18.8,6.7,17.6,5.9,16.6z"/>
	<path class="st1" d="M187.1,291.8c0.1-0.3,0.1-0.5,0.2-0.8c1.3-1.9,3.4-2.5,5.5-3.1c13.4-4.1,26.8-8.1,40.2-12.1
		c6.4-1.9,6.9-2.8,7.3-9.3c0.7-14.1,1.4-28.2,2.8-42.3c0.6-6.3-0.1-7.1-6.6-7.1c-14.2,0-28.3,0-42.5,0c-2.6,0-5.4,0.5-7.4-1.9
		c-1.2-2.3-0.9-4.8-0.9-7.3c0-39.9,0-79.9,0-119.8c0-2.8-0.5-5.7,1.6-8l0-0.2c2-1.5,4.4-1.3,6.7-1.3c34.8,0,69.6,0,104.4,0
		c8.4,0,9.2,1.1,8.5,9.6c-0.9,11.3-1.9,22.7-2.9,34c-0.4,4.6-2.5,7.1-6.5,8.9c-21.6,9.4-43.2,18.9-64.8,28.3
		c-7.3,3.2-14.5,6.3-21.7,9.5c-2.6,1.2-5.1,2.3-8,1.9c30-0.3,60-0.2,90-0.2c5.9,0,7.4,1.5,6.9,7.5c-1,13.1-2.1,26.3-3.2,39.4
		c-1.4,17.4-2.9,34.8-4.5,52.2c-1.1,12.1-2.4,24.3-3.2,36.4c-0.3,4.7-2.7,7.4-7.4,8.6c-18.5,5-37,9.8-55.5,14.7
		c-9.7,2.6-19.4,5.2-29.2,7.7c-3.2,0.8-6.6,2.7-9.9-0.1c-0.6-1-0.9-2.1-0.9-3.3c-0.2-12.6-0.2-25.2,0-37.9
		C185.7,294.4,186.1,293,187.1,291.8z"/>
	<path class="st2" d="M187.3,337.7c20.1-4.2,39.8-10.3,59.8-15.3c11.8-3,23.5-6.4,35.3-9.3c3.2-0.8,4.3-2.4,4.5-5.3
		c1.4-15.9,2.8-31.8,4.2-47.8c2.3-26.4,4.4-52.9,6.7-79.3c0.8-8.9,1-8.9-7.9-8.9c-29.2,0-58.4,0-87.8,0c0.7-1.7,2.5-1.9,3.8-2.5
		c29.7-13,59.4-26.1,89.2-38.9c4.7-2,7.1-4.4,7.4-9.9c0.6-12.2,2-24.3,3.3-36.4c0.4-3.7-1.6-4-4.4-4c-11.4,0-22.8,0-34.1,0
		c-26.7-0.1-53.4-0.2-80.2-0.2c0-13,0.1-26.1,0-39.1c0-3.2,0.9-4.3,4.2-4.3c46.2,0.1,92.4,0.1,138.6,0c3.7,0,4.3,1.1,4,4.6
		c-1.8,18.1-3.4,36.3-4.9,54.4c-1.1,12.9-2,25.9-3.1,38.8c-1.2,13.1-2.6,26.1-3.7,39.2c-1.1,12.8-2,25.5-3.2,38.3
		c-1.2,12.9-2.5,25.8-3.7,38.7c-0.8,8.5-1.4,17-2.2,25.5c-1.3,14.1-2.6,28.1-3.8,42.2c-0.8,9.2-1.6,18.3-2.1,27.5
		c-0.2,4.3-1.4,6.6-6.1,7.9c-35.2,9.5-70.4,19.2-105.6,28.9c-0.5,0.1-0.9,0.3-1.4,0.5c-6.8,1.8-6.8,1.8-6.8-5.2c0-13,0-26.1,0-39.1
		c-0.3-0.2-0.4-0.5-0.2-0.6C187,337.8,187.2,337.7,187.3,337.7z"/>
	<path class="st3" d="M187.1,80c0,45.2,0,90.4,0.1,135.6c-1.5,0.9-3.2,0.4-4.8,0.4c-17.4,0-34.8,0-52.3,0c-1.8,0-3.6-0.3-5.4,0.3
		c-14.4,0.1-28.7,0-43.1,0.3c-3.9,0.1-5.4-0.7-5.6-5c-0.8-12-2.1-24-3.5-35.9c-0.5-4,0.8-5.9,4.4-7.4c33.3-14.2,66.6-28.6,99.9-43
		c1.5-0.7,3-1.3,4.9-2.2c-1.5-1.2-3-0.7-4.3-0.8c-35-0.3-69.9-0.6-104.9-0.7c-3.9,0-5.4-1-5.8-5c-1.2-10.8-2.5-21.6-3.7-32.4
		c-0.4-4.1,0.8-4.5,4.3-4.5c35.6,0.1,71.3,0,106.9,0C178.6,79.9,182.9,80,187.1,80z"/>
	<path class="st3" d="M187.3,337.7c0,0.3-0.1,0.6-0.1,0.9c-28.6-6.4-56.8-14.2-85.2-21.5c-0.3-0.1-0.6-0.2-0.9-0.3
		c-4.7-1.3-11-0.9-13.8-4.4c-2.7-3.4-2.3-9.3-2.9-14.2c-2-16.7-3.5-33.4-4.4-50.2c-0.2-3.7,0.8-4.8,4.5-4.7
		c11.7,0.2,23.4,0.2,35.1,0c3.6,0,5.1,0.9,5.3,5c0.5,9.7,1.7,19.4,2.5,29c0.2,2.4,1,3.4,3.4,3.9c18.7,4,37.4,7.4,56.2,10.6
		C187.2,307.1,187.2,322.4,187.3,337.7z"/>
	<path class="st2" d="M124.8,216.4c2.7-1.1,5.5-0.5,8.3-0.6c18.1-0.1,36.1-0.2,54.2-0.2c17.5,0.1,34.9,0.4,52.4,0.2
		c4.2,0,5.3,1.1,5,5.3c-1.2,16.4-2.2,32.8-3.2,49.3c-0.2,3.4-1.5,5-5,6c-16.4,4.7-32.8,9.7-49.2,14.6c0-23.1-0.2-46.1,0-69.2
		c0-4-1-5.3-5.2-5.3C162.9,216.7,143.8,216.5,124.8,216.4z"/>
</g>
</svg>
