<?xml version="1.0" encoding="utf-8"?>
<!-- Generator: Adobe Illustrator 20.1.0, SVG Export Plug-In . SVG Version: 6.00 Build 0)  -->
<svg version="1.1"
	 id="svg4475" xmlns:cc="http://creativecommons.org/ns#" xmlns:dc="http://purl.org/dc/elements/1.1/" xmlns:inkscape="http://www.inkscape.org/namespaces/inkscape" xmlns:rdf="http://www.w3.org/1999/02/22-rdf-syntax-ns#" xmlns:sodipodi="http://sodipodi.sourceforge.net/DTD/sodipodi-0.dtd" xmlns:svg="http://www.w3.org/2000/svg"
	 xmlns="http://www.w3.org/2000/svg" xmlns:xlink="http://www.w3.org/1999/xlink" x="0px" y="0px" viewBox="0 0 32 32"
	 style="enable-background:new 0 0 32 32;" xml:space="preserve">
<style type="text/css">
	.st0{fill:#FFFFFF;}
</style>
<g id="layer1" transform="translate(0,-1020.3622)">
	<g id="g10414" transform="translate(309.5948,-461.25192)">
		<g id="g15415" transform="translate(66.405195,515.25192)">
			<g id="g15417" transform="translate(-150,-49.999983)">
				<g id="g14600" transform="translate(-49.999995,-130.00002)">
					<path id="path9997" class="st0" d="M-160.1,1149.2c-3.6,0-6.8,1.5-9.2,3.9c0,0,0,0,0,0c0,0,0,0-0.1,0c-0.1,0-0.1,0.1-0.2,0.1
						c-0.1,0.2-0.3,0.4-0.4,0.5c-0.1,0.1-0.1,0.1-0.2,0.2c-0.1,0.1-0.1,0.1-0.2,0.2c0,0-0.1,0.1-0.1,0.1c-0.1,0.1-0.2,0.2-0.3,0.4
						c-0.1,0.1-0.1,0.2-0.2,0.3c-0.1,0.1-0.1,0.2-0.2,0.3c0,0.1-0.1,0.1-0.1,0.2c-1.2,2-1.9,4.3-1.9,6.7c0,0,0,0,0,0.1
						c0,0,0,0,0,0.1c0,0.7,0.1,1.4,0.2,2c0,0,0,0,0,0c0,0.1,0,0.1,0,0.2c0.1,0.5,0.2,1,0.3,1.6c-1.2,1.1-2.2,2-2.8,2.8
						c-0.3,0.4-0.6,0.9-0.7,1.4c-0.1,0.5,0,1,0.3,1.4c0,0,0,0,0,0c0.4,0.8,1.3,1.4,2.4,1.5c1.1,0.1,2.6-0.1,4.3-0.7
						c0.1,0,0.3-0.1,0.4-0.2c2.3,2,5.2,3.2,8.4,3.2c6.8,0,12.4-5.4,12.9-12.2c0,0,0,0,0,0c0-0.3,0.1-0.7,0.1-1c0-1-0.1-2-0.3-2.9
						c1.1-1.1,2.1-2.2,2.8-3.3c0.3-0.6,0.6-1.2,0.6-1.8c0.1-0.5-0.1-1-0.4-1.4l0,0c0,0,0,0-0.1,0c-0.4-0.6-1.2-0.8-2.2-0.8
						c0,0,0,0,0,0c0,0,0,0,0,0h-0.1c0,0,0,0,0,0c-1,0.1-2.5,0.4-4,1C-153.3,1150.7-156.5,1149.2-160.1,1149.2z M-160.1,1150.2
						c3.7,0,7,1.7,9.2,4.3c0.1,0.1,0.2,0.2,0.2,0.3c0,0,0,0.1,0.1,0.1c0.5,0.7,0.9,1.3,1.3,2.1h-5.9c-0.8,0-1.4,0.7-1.4,1.4
						c0,0.7,0.6,1.5,1.4,1.5h1.8h1.1c-1.3,1-2.7,1.9-4.2,2.9h-1.7c-1.3,0-2.4,1.1-2.4,2.4v0.1c-3.4,2-6.7,3.5-9.1,4.3
						c-0.5-0.7-1-1.5-1.3-2.4c0,0,0-0.1,0-0.1c-0.1-0.3-0.2-0.5-0.3-0.8c-0.2-0.5-0.3-1-0.4-1.5h5c0.8,0,1.4-0.7,1.4-1.5
						c0-0.8-0.6-1.5-1.4-1.5h-5.2c0-0.2,0-0.4,0-0.7h5.2c0.3,0,0.5-0.2,0.5-0.5s-0.2-0.5-0.5-0.5c0,0,0,0,0,0h-5
						c0.3-1.5,0.8-2.9,1.5-4.1h8.3c0.8,0,1.4-0.7,1.4-1.5c0-0.8-0.6-1.5-1.4-1.5h-5.8C-165.7,1151.3-163,1150.2-160.1,1150.2z
						 M-158.1,1153c-0.8,0-1.4,0.7-1.4,1.5c0,0.8,0.6,1.5,1.4,1.5c0.8,0,1.4-0.7,1.4-1.5C-156.7,1153.7-157.3,1153-158.1,1153z
						 M-146.8,1153.1C-146.8,1153.1-146.8,1153.1-146.8,1153.1c1-0.1,1.4,0.2,1.6,0.4c0,0,0,0,0.1,0.1c0.1,0.1,0.2,0.3,0.2,0.7
						c0,0.4-0.2,0.8-0.5,1.4c-0.6,1.1-1.7,2.3-3,3.5c0,0,0,0,0,0c-1.3,1.2-2.9,2.5-4.6,3.8c-0.1,0-0.1,0.1-0.2,0.1
						c-1.5,1.1-3.2,2.2-5,3.3c-0.2,0.1-0.5,0.2-0.7,0.4c-0.1,0-0.1,0.1-0.2,0.1c-2.9,1.7-5.7,3.1-8.3,4.1c0,0,0,0-0.1,0c0,0,0,0,0,0
						c0,0-0.1,0-0.1,0.1c-0.6,0.2-1.1,0.4-1.6,0.6c-1.7,0.6-3,0.7-3.9,0.6c-0.9-0.1-1.4-0.4-1.7-1c0,0,0,0,0,0
						c-0.2-0.3-0.2-0.5-0.2-0.8c0-0.3,0.2-0.6,0.5-0.9c0.5-0.6,1.4-1.5,2.4-2.4c0,0.1,0.1,0.2,0.1,0.3c-0.4,0.7-0.8,1.3-0.8,2
						c0,0,0,0,0,0c0,0.4,0.1,0.7,0.3,1c0.2,0.2,0.5,0.4,0.8,0.4c0.6,0.2,1.3,0.1,2,0c0,0,0,0,0,0c2.5-0.8,6-2.4,9.6-4.5
						c0.2,0,0.4-0.1,0.4-0.3c0.4-0.2,0.8-0.5,1.3-0.7c0.7-0.4,1.4-0.9,2.1-1.3c0.2,0,0.4-0.1,0.5-0.3c3.1-2,5.8-4,7.6-5.8
						c0,0,0,0,0,0c1-1.1,1.4-2.3,0.9-3.2c-0.3-0.5-0.8-0.7-1.3-0.8c-0.4-0.1-1,0-1.5,0.2c0,0,0,0-0.1-0.1
						C-148.8,1153.5-147.6,1153.1-146.8,1153.1z M-168.8,1154h6.9c0.2,0,0.4,0.2,0.4,0.5c0,0.2-0.2,0.5-0.4,0.5h-7.6
						C-169.3,1154.7-169.1,1154.4-168.8,1154z M-158.1,1154c0.2,0,0.4,0.2,0.4,0.5c0,0.2-0.2,0.5-0.4,0.5c-0.2,0-0.4-0.2-0.4-0.5
						C-158.6,1154.2-158.3,1154-158.1,1154z M-149.3,1154.8c0.2,0,0.4,0,0.6,0c0.3,0,0.5,0.2,0.6,0.2c0,0,0,0,0,0
						c0.1,0.2,0.1,0.8-0.3,1.4c-0.3-0.6-0.6-1.1-1-1.6C-149.4,1154.8-149.4,1154.8-149.3,1154.8z M-155.3,1158h5.3
						c-0.3,0.3-0.7,0.6-1.1,0.9h-0.6h-1.9h-1.8c-0.3,0-0.4-0.2-0.4-0.5C-155.7,1158.1-155.6,1158-155.3,1158z M-164.8,1160.1
						c-0.3,0-0.5,0.2-0.5,0.5c0,0.3,0.2,0.5,0.5,0.5c0.2,0,0.4-0.2,0.4-0.5C-164.4,1160.4-164.6,1160.1-164.8,1160.1z
						 M-148.3,1160.2c0.1,0.7,0.2,1.4,0.2,2.1c0,0.2,0,0.4,0,0.5h-2.2h-1.2C-150.3,1161.9-149.2,1161-148.3,1160.2z M-172,1162.8
						h5.2c0.2,0,0.4,0.2,0.4,0.5c0,0.2-0.2,0.5-0.4,0.5h-5.1C-171.9,1163.5-172,1163.1-172,1162.8z M-158.2,1163.8L-158.2,1163.8
						c-0.2,0.2-0.4,0.3-0.7,0.5c-0.2,0.1-0.3,0.2-0.5,0.3C-159.1,1164.2-158.7,1163.8-158.2,1163.8z M-152.8,1163.8h2.5h2
						c-0.1,1-0.4,1.9-0.7,2.9h-8.1C-155.6,1165.8-154.1,1164.8-152.8,1163.8z M-158.7,1167.7c0.2,0.1,0.4,0,0.5,0h8.9
						c-0.2,0.4-0.4,0.8-0.7,1.2h-6.2c0,0,0,0,0,0c-0.3,0-0.5,0.2-0.5,0.5c0,0.3,0.2,0.5,0.5,0.5h5.5c-2.2,2.8-5.6,4.7-9.4,4.7
						c-1.5,0-2.9-0.3-4.2-0.8h3.8c0.3,0,0.5-0.2,0.5-0.5s-0.2-0.5-0.5-0.5c0,0,0,0,0,0h-5.8c0,0,0,0,0,0c-0.4-0.2-0.8-0.5-1.1-0.8
						c0,0,0.1,0,0.1,0c0,0,0,0,0,0c0,0,0,0,0,0h5.8c0.3,0,0.5-0.2,0.5-0.5s-0.2-0.5-0.5-0.5c0,0,0,0,0,0h-3.4
						C-162.9,1170-160.8,1168.9-158.7,1167.7z M-171.5,1168.5c0.2,0.5,0.5,0.9,0.8,1.4c-0.3,0-0.5,0-0.7-0.1c-0.2,0-0.3-0.1-0.3-0.2
						c-0.1-0.1-0.1-0.1-0.1-0.3c0,0,0,0,0,0C-171.8,1169.2-171.7,1168.9-171.5,1168.5z M-158.1,1168.9c-0.3,0-0.5,0.2-0.5,0.5
						c0,0.3,0.2,0.5,0.5,0.5c0.3,0,0.5-0.2,0.5-0.5C-157.6,1169.1-157.8,1168.9-158.1,1168.9z M-159.1,1172.9
						c-0.3,0-0.5,0.2-0.5,0.4c0,0.3,0.2,0.5,0.5,0.5c0.2,0,0.4-0.2,0.4-0.5C-158.6,1173.1-158.8,1172.9-159.1,1172.9z"/>
				</g>
			</g>
		</g>
	</g>
</g>
</svg>
