<?xml version="1.0" encoding="utf-8"?>
<!-- Generator: Adobe Illustrator 20.1.0, SVG Export Plug-In . SVG Version: 6.00 Build 0)  -->
<svg version="1.1" id="Warstwa_1" xmlns="http://www.w3.org/2000/svg" xmlns:xlink="http://www.w3.org/1999/xlink" x="0px" y="0px"
	 viewBox="0 0 375 423" style="enable-background:new 0 0 375 423;" xml:space="preserve">
<style type="text/css">
	.st0{fill:#E34D26;}
	.st1{fill:#F06529;}
	.st2{fill:#EAEAEA;}
	.st3{fill:#FEFEFE;}
</style>
<path class="st0" d="M184,418c-10.7-4.4-22.1-6.7-33.3-9.8c-36-10.2-72.1-20.1-108.1-30c-3.4-0.9-4.3-2.5-4.6-5.8
	c-3.1-36.3-6.4-72.6-9.7-108.9c-3.2-35.6-6.3-71.3-9.4-106.9c-3.1-35.1-6.3-70.3-9.5-105.4C8.2,37.8,7.3,24.6,5.9,11.3
	c-0.4-3.9,0.5-5,4.6-5c31.8,0.2,63.7,0.1,95.5,0.1c85.6,0,171.3,0,256.9-0.1c4.1,0,5.7,0.4,5.3,5.3c-3.1,32.3-5.9,64.7-8.7,97
	c-2.5,27.5-4.9,55-7.4,82.6c-2.9,32.3-5.8,64.6-8.7,97c-2.5,27.9-5,55.7-7.2,83.6c-0.3,4-1.7,5.6-5.5,6.6
	c-46.5,12.7-92.9,25.7-139.4,38.6c-0.8,0.2-1.4,0.7-2.2,1C187.3,418,185.7,418,184,418z"/>
<path class="st1" d="M187,81.9c0-13.5,0.1-27-0.1-40.5c0-3.5,1.1-4.5,4.6-4.5c46.3,0.1,92.6,0.1,138.9,0c3.9,0,5,1.4,4.6,5
	c-1,8.9-1.7,17.8-2.7,26.6c-0.6,5.3-0.7,10.6-1,15.8c-1.1,17-3.5,33.9-4.5,50.9c-1.2,20.3-4.2,40.5-5.6,60.7
	c-0.9,13.2-2.4,26.4-3.4,39.6c-1.2,15.6-2.7,31.3-4.5,46.9c-1.1,9.2-1.7,18.5-2.2,27.7c-0.7,13.1-3.2,26-3.2,39.1
	c0,2.5-1.1,4.3-4.3,5.1c-30.9,8.4-61.7,17-92.5,25.6c-6.9,1.9-13.8,3.7-20.6,5.8c-3,0.9-3.6,0.1-3.6-2.9c0.1-12.7,0-25.3,0.1-38
	c0-2.2,0.3-4.4-2-5.7c0.5-0.9,1.3-1.2,2.2-1.5c28.7-7.5,57.2-15.8,85.8-23.5c4.4-1.2,6.2-3.7,6.5-8.1c3-37,6.4-73.9,9.8-110.9
	c0.4-4.5,1-8.9,1.2-13.4c0.3-6.1,0.1-6.3-5.8-6.3c-10.7,0-21.3,0-32,0c-19.3,0-38.6,0-58,0c-2.5,0-5,0.3-7.4-0.8
	c-0.6-0.3-1-0.8-1.2-1.4c-1.4-5.6-0.6-11.2-0.7-16.8c-0.1-7.5-0.1-14.9,0-22.4c0-2.1-0.1-4.3,1.3-6.2c2.4-1.7,5.1-1.2,7.7-1.2
	c31.3,0,62.5,0,93.8-0.1c2.4,0,5.1,0.8,6.7-2c2.2-12.7,3-25.6,3.7-38.5c-0.7-3.3-3.4-2.6-5.6-2.6c-16.5,0-33,0-49.4,0
	c-16.6,0-33.3,0-49.9,0C191.3,83.4,188.8,83.9,187,81.9z"/>
<path class="st2" d="M296.8,125c0.6,3.3-1.8,2.9-3.7,2.9c-10.1,0-20.3,0-30.4,0c-25.2,0-50.5,0.1-75.7,0.2c-2.3,1.9-5,1.5-7.7,1.5
	c-16,0-31.9,0-47.9,0c-6.4,0-6.3,0.1-6,6.4c0.5,10.1,1.6,20.2,2.6,30.3c0.6,5.7,1.2,6.1,6.9,6.1c15,0.1,29.9,0,44.9,0
	c2.5,0,5-0.3,7.2,1.4l-0.1,0.4c2,2,1.6,4.6,1.6,7.1c0.1,10,0,20,0,29.9c0,5.8,0.4,6.2,6.3,6.2c13.1,0.1,26.3,0,39.4,0
	c2,0,4-0.1,6,0.3c4.3,1,5,3.8,1.9,7.5c-2.3-3.1-5.4-3.7-9.2-3.7c-13,0.2-25.9,0.1-38.9,0c-2.5,0-5,0.3-7.2-1.5
	c-11-0.1-22-0.2-33-0.2c-21.5,0-43,0-64.5,0c-2.8,0-4.4-0.2-4.7-3.8c-3.7-43.3-7.7-86.5-11.7-129.7c-0.4-4,1.2-4.2,4.4-4.2
	c34.5,0.1,68.9,0.1,103.4,0c2,0,4-0.1,6-0.2c36.5,0.1,72.9,0.1,109.4,0.2c2.8,0,5.9-0.4,3.8,4.1c-2.9-1.3-6.1-1.6-9.2-1.6
	c-31.6,0-63.2,0-94.8,0c-7.2,0-7.4,0.2-7.4,7.2c0,9.5,0,19,0,28.5c0,3.5,1.3,5.2,5,5.2c32.6,0,65.2,0.1,97.8-0.1
	C293.2,125.3,295,124.6,296.8,125z"/>
<path class="st2" d="M187,339.1c-0.7,0-1.3,0.1-2,0.1c-29-8.1-57.9-16.2-86.9-24.2c-3.5-0.9-4.7-2.5-5-6
	c-1.7-21.1-3.5-42.1-5.5-63.1c-0.3-2.8,0.1-3.8,3.2-3.8c13,0.1,26,0.2,39,0c3.1,0,3.6,1.4,3.8,3.8c0.8,9.6,1.7,19.2,2.5,28.8
	c0.2,2.1,0.2,3.7,2.9,4.4c16.1,4.1,32.1,8.4,48.2,12.6c0.2,0.2,0.4,0.5,0.6,0.7c1,1.8,0.9,3.8,0.9,5.8c0,11.4,0,22.8,0,34.2
	C188.6,334.8,188.6,337.2,187,339.1z"/>
<path class="st1" d="M187,220.1c17.2-0.1,34.5,0.1,51.7-0.3c4.7-0.1,3.3,2.9,3.6,5.1c1.7,2.2,1.1,4.8,0.9,7.2
	c-1.4,13.6-2.5,27.1-3.6,40.7c-0.4,4.5-1.9,7-6.3,8.2c-13.8,3.8-27.7,7.3-41.4,11.2c-1.6,0.5-3.2,0.9-4.8-0.1c0,0,0.1-0.4,0.1-0.4
	C187,267.9,187,244,187,220.1z"/>
<path class="st3" d="M187,292.1c15.4-4.2,30.7-8.5,46.1-12.5c3.6-0.9,4.6-2.6,4.9-6.1c1.3-16.2,2.8-32.4,4.3-48.6
	c1.5-5.5,1.2-5.9-3.9-6c-15.6,0-31.2-0.1-46.8,0.1c-3.5,0-4.6-1-4.5-4.5c0.2-13.5,0-26.9,0-40.4c34.1-0.1,68.3-0.1,102.4-0.2
	c2.2,0,3.1,0.3,2.9,3c-2.3,25.3-4.5,50.7-6.7,76.1c-1.6,17.7-3.4,35.4-4.6,53.2c-0.4,5.6-2.3,8.2-7.9,9.6
	c-27.2,7.2-54.2,14.8-81.3,22.3c-1.6,0.4-3.2,0.6-4.9,1C187,323.5,187,307.8,187,292.1z"/>
<path class="st3" d="M296.8,125c-1.3,2-3.2,2-5.3,2c-33.3,0-66.6-0.1-99.9,0c-3.3,0-4.8-0.7-4.7-4.4c0.2-11.8,0.2-23.7,0-35.5
	c0-3.3,1.2-4.2,4.3-4.2c34.8,0.1,69.6,0.1,104.4,0c2.3,0,4.5-0.1,4.4,3.2C299,99.1,297.9,112.1,296.8,125z"/>
<path class="st0" d="M187,173.8c-19,0.1-37.9,0.1-56.9,0.2c-2.7,0-3.2-1.1-3.4-3.5c-1.1-13.1-2.4-26.1-3.7-39.2
	c-0.2-2.4,0.1-3.6,3-3.6c20.3,0.2,40.6,0.2,60.9,0.3C187,143.3,187,158.6,187,173.8z"/>
</svg>
