<?xml version="1.0" encoding="utf-8"?>
<!-- Generator: Adobe Illustrator 20.1.0, SVG Export Plug-In . SVG Version: 6.00 Build 0)  -->
<svg version="1.1" id="Warstwa_1" xmlns="http://www.w3.org/2000/svg" xmlns:xlink="http://www.w3.org/1999/xlink" x="0px" y="0px"
	 viewBox="0 0 375 423" style="enable-background:new 0 0 375 423;" xml:space="preserve">
<style type="text/css">
	.st0{fill:#D5B932;}
	.st1{fill:#D9C047;}
	.st2{fill:#FED93E;}
	.st3{fill:#EAEAEA;}
	.st4{fill:#EAEBEF;}
	.st5{fill:#DDCC79;}
	.st6{fill:#D4B628;}
	.st7{fill:#D4B72A;}
	.st8{fill:#D6BC3F;}
	.st9{fill:#D4B82D;}
	.st10{fill:#D3B421;}
	.st11{fill:#FEFEFE;}
	.st12{fill:#FED839;}
	.st13{fill:#FED735;}
	.st14{fill:#FED736;}
	.st15{fill:#FED732;}
	.st16{fill:#E6E1C9;}
	.st17{fill:#EBECF3;}
</style>
<g>
	<path class="st0" d="M6,6.1c0.7,0,1.4,0,2.1,0c2,1,4.1,0.5,6.2,0.5c117.1,0.1,234.3,0,351.4,0.1c4.1,1.5,3.2,5.1,3,8.1
		c-0.6,9.4-1.6,18.8-2.4,28.2c-1.6,18.1-3.3,36.2-4.9,54.3c-1.5,17.2-3.2,34.5-4.7,51.7c-1.5,17.6-3.2,35.2-4.7,52.8
		c-1.6,17.9-3.2,35.9-4.8,53.8c-1.3,13.6-2.4,27.2-3.6,40.8c-1.6,17.6-3.1,35.2-4.7,52.8c-0.6,6.1-1,12.2-1.6,18.3
		c-0.7,6.9-1.1,7.9-7.8,10c-12,3.8-24.2,6.9-36.4,10.3c-30,8.4-60,16.8-90,25.3c-10.9,3.1-21.6,3.4-32.5,0.2
		c-41.9-12-83.9-23.6-125.8-35.7c-6.8-2-8.1-3.6-8.7-10.6c-2.7-33.3-5.9-66.5-8.7-99.8c-2.7-31.5-5.6-63.1-8.5-94.6
		c-2.6-29.1-5.3-58.2-7.9-87.3c-2-21.8-4.3-43.5-5.6-65.3c-0.2-2.6-0.8-5.2-1.4-7.7C3.6,9.8,4,7.7,6,6.1z"/>
	<path class="st1" d="M367.5,6.1c-0.3,0.4-0.6,0.7-0.9,1.1c-116.8,0-233.5,0-350.3-0.1c-2.7,0-5.6,0.6-8.2-1
		C127.9,6.1,247.7,6.1,367.5,6.1z"/>
	<path class="st2" d="M186.8,212c0-55.1,0-110.3,0-165.4c0-8,0-8,8.2-8c43.9,0,87.9,0,131.8,0c7,0,7.6,0.5,6.9,7.5
		c-2.7,29.4-5.5,58.8-8.1,88.2c-1.9,21.6-3.6,43.2-5.5,64.8c-2.3,25.7-4.8,51.5-7.1,77.2c-2.2,24-4.4,48-6.3,72
		c-0.3,3.6-1.6,5.1-5,6.1c-36.5,9.9-72.9,19.9-109.3,30.1c-5.3,1.5-5.5-1-5.5-5c0-38,0-76,0-114C186.8,247.7,186.8,229.9,186.8,212z
		"/>
	<path class="st3" d="M168.9,324.4c-20.9-5.7-41.8-11.4-62.7-17.1c-11.6-3.2-23.2-6.6-34.9-9.6c-2.8-0.7-3.6-1.8-3.6-4.6
		c0.1-10.8,0-21.7,0.1-32.6c0-6,0-6,5.7-4.4c17.5,4.8,34.9,9.6,52.4,14.4c0.7,0.2,1.4,0.2,2.1,0.3c2.3-0.4,4.3,0.6,6.4,1
		c1.7,0.1,2.3-1.1,2.7-2.4c1.1-3.4,0.8-6.9,0.8-10.4c0-54.5,0-109,0-163.6c0-2.1-0.1-4.2,0.1-6.3c0.2-1.7,1-3.4,2.7-3.4
		c10.2-0.1,20.5-1.5,30.7,0.8c1.5,1.8,1.1,4,1.1,6c0,75,0,150,0,225C172.6,320.4,173.3,323.8,168.9,324.4z"/>
	<path class="st4" d="M168.9,324.4c2.7-2.3,2.1-5.4,2.1-8.3c0-76.4,0-152.8,0-229.1c0.8-0.3,1.3-0.1,1.7,0.6c0.7,2,0.4,4.2,0.4,6.3
		c0,74.8,0,149.7,0,224.5c0,2.4,0.7,4.9-1.2,7C170.9,325.1,169.9,324.8,168.9,324.4z"/>
	<path class="st5" d="M171.9,325.4c0-20.8,0.1-41.7,0.1-62.5c0-56.2,0-112.4,0-168.6c0-2.4-0.1-4.9-0.1-7.3
		c-0.3-0.4-0.4-0.7-0.5-1.2c0-0.2,0.1-0.4,0.1-0.6c0.1-0.2,0.3-0.3,0.4-0.5c0.3,0.1,0.6,0.2,0.9,0.2c1.3,1.3,0.7,3,0.7,4.5
		c0,77.2,0,154.4,0,231.5c0,1.5,0.4,3.2-0.5,4.6C172.7,325.5,172.3,325.4,171.9,325.4z"/>
	<path class="st6" d="M173.1,325.5c0-79,0-158,0-237c0-1.2-0.1-2.4-0.2-3.7c1.6,1.8,1.2,3.9,1.2,6c0,76.2,0,152.4,0,228.6
		C174.2,321.5,174.4,323.7,173.1,325.5z"/>
	<path class="st7" d="M134.2,273c-2.1-0.7-4.2-1.5-6.3-2.2c7.3-1.7,7.3-1.7,7.3-10.2c0-56,0-112,0-168.1c0-2.6-0.6-5.3,1-7.7
		c2.4,2.3,1.5,5.3,1.5,8c0.1,56.9,0,113.8,0,170.7c0,2.6,0,5.3,0.1,7.9C137.6,273.9,136.1,273.8,134.2,273z"/>
	<path class="st8" d="M137.2,272c-1.3-2.3-0.8-4.8-0.8-7.2c0-60,0-119.9,0-179.9c0.4,0,0.7-0.1,1.1-0.1c0.2,0.3,0.4,0.5,0.7,0.8
		c0.6,1.5,0.3,3.1,0.3,4.7c0,58.4,0,116.8,0,175.3C138.4,267.7,139.2,270.1,137.2,272z"/>
	<path class="st9" d="M137.4,84.8c0.8-1.8,2.3-2,3.9-2c8.9,0,17.8,0,26.7,0c1.6,0,3.2,0.1,4,1.8c0,0.2,0,0.4,0,0.5
		c-8.7,1.6-17.5,0.4-26.3,0.7c-2.7,0.1-5.5,0.8-8.1-0.7L137.4,84.8z"/>
	<path class="st10" d="M66.1,295c0-12.9,0-25.7,0-38.6c0.1,0,0.3,0,0.4,0c0,12.8,0,25.6,0,38.5C66.4,294.9,66.3,294.9,66.1,295z"/>
	<path class="st11" d="M315.9,85.2c-1.1,13.4-2.2,26.8-3.3,40.3c-0.1,0.8-0.7,1.6-1,2.4c-1.9,1.9-4.3,1.1-6.5,1.2
		c-21.9,0.1-43.7-0.1-65.6,0.2c-2.7,0.6-2.3,2.8-2.3,4.6c0,17.5,0,35,0,52.5c0,1.9-0.2,3.9,2.1,4.9c19.6-2.3,39.3-4.7,58.9-6.9
		c11-1.2,9.8-2.9,8.9,8.7c-2.6,34-5.4,68.1-7.9,102.1c-0.3,3.8-1.4,5.5-5.1,6.4c-29.3,7.5-58.6,15.2-87.9,23c-4.2,1.1-5,0-4.9-4
		c0.2-10.9,0.2-21.7,0-32.6c-0.1-3.4,1-4.9,4.4-5.7c20.2-5.2,40.3-10.7,60.4-15.9c3.7-0.9,5.2-2.5,5.3-6.3
		c0.2-9.1,0.9-18.2,1.3-27.3c0.1-1.9,0.5-4.1-2.8-3.5c-19.8,3.7-39.6,7.3-59.3,11c-0.2,0.6-0.4,0.6-0.8,0.1
		c-8.5,0.5-8.5,0.5-8.5-8.2c0-46.7,0-93.4,0-140.1c0-2.3,0.1-4.5,0.2-6.8c1.4-1.8,3.5-1.3,5.4-1.3c34.5,0,69.1,0,103.6,0
		C312.4,83.9,314.5,83.4,315.9,85.2z"/>
	<path class="st12" d="M315.9,85.2c-38.1,0-76.2,0-114.3,0c0.8-2.8,3.1-2.4,5.2-2.4c34.7,0,69.3,0,104,0
		C312.8,82.8,315.1,82.4,315.9,85.2z"/>
	<path class="st13" d="M200.2,87.1c0,50.7,0,101.4,0,152.1c-0.2,0-0.3,0-0.5,0c0-50.7,0-101.4,0-152.1
		C199.9,87.1,200.1,87.1,200.2,87.1z"/>
	<path class="st12" d="M238.3,127.9c24.4,0,48.9,0,73.3-0.1c-0.4,3.9-3.5,2.1-5.2,2.1c-22.7,0.1-45.4,0.1-68.1,0.1
		C237.7,129.3,237.6,128.6,238.3,127.9z"/>
	<path class="st14" d="M238.3,127.9c0,0.7,0,1.5,0,2.2c0,17.8,0,35.6,0,53.3c0,2.6-0.1,5.2,1.1,7.7c-2.5,1.1-3-0.2-3-2.4
		c0-19.3,0-38.6,0-57.9C236.3,129.5,236.1,127.9,238.3,127.9z"/>
	<path class="st13" d="M199.6,323.4c0-12.5,0-25,0-37.5c0.1,0,0.3,0,0.4,0c0,12.5,0,25,0,37.5C199.9,323.4,199.7,323.4,199.6,323.4z
		"/>
	<path class="st15" d="M209.9,240.4c0.2-0.2,0.5-0.2,0.8-0.1c0.9,0.1,1.7,0.2,2.7,0.4C211.9,242.1,210.9,241,209.9,240.4z"/>
	<path class="st16" d="M137.6,85.1c11.5,0,22.9,0,34.4,0c-0.1,0.3-0.1,0.6-0.1,0.8c-9.1,1-18.1,0.2-27.2,0.4c-5.7,0.1-5.7,0-5.7,5.7
		c0,58.6,0,117.2,0,175.8c0,2.1,0.6,4.2-0.5,6.2c-1.5,0.1-2.9,0-4.1-1c1-0.3,2.5,0.6,3-1.1c0.1-11.2,0.2-22.4,0.2-33.6
		c0-48.8,0-97.6,0-146.4C137.4,89.7,137.5,87.4,137.6,85.1z"/>
	<path class="st17" d="M138.4,274c0-60.1,0-120.1,0-180.2c0-7.9,0-7.9,7.7-7.9c8.6,0,17.2,0,25.7,0c0.1,0.3,0.1,0.6,0.1,1
		c-0.3,0-0.6,0-0.9,0c-8,0-16.1,0-24.1,0c-7.3,0-7.4,0-7.4,7.2c0,45.1,0,90.3,0,135.4c0,12.6,0,25.2,0,37.8
		C139.5,269.7,139.9,272,138.4,274z"/>
</g>
</svg>
