<?xml version="1.0" encoding="utf-8"?>
<!-- Generator: Adobe Illustrator 20.1.0, SVG Export Plug-In . SVG Version: 6.00 Build 0)  -->
<svg version="1.1"
	 id="svg4475" xmlns:cc="http://creativecommons.org/ns#" xmlns:dc="http://purl.org/dc/elements/1.1/" xmlns:inkscape="http://www.inkscape.org/namespaces/inkscape" xmlns:rdf="http://www.w3.org/1999/02/22-rdf-syntax-ns#" xmlns:sodipodi="http://sodipodi.sourceforge.net/DTD/sodipodi-0.dtd" xmlns:svg="http://www.w3.org/2000/svg"
	 xmlns="http://www.w3.org/2000/svg" xmlns:xlink="http://www.w3.org/1999/xlink" x="0px" y="0px" viewBox="0 0 32 32"
	 style="enable-background:new 0 0 32 32;" xml:space="preserve">
<style type="text/css">
	.st0{fill:#FFFFFF;}
</style>
<g id="layer1" transform="translate(0,-1020.3622)">
	<g id="g10414" transform="translate(309.5948,-461.25192)">
		<g id="g15415" transform="translate(66.405195,515.25192)">
			<g id="g15417" transform="translate(-150,-49.999983)">
				<g id="g14600" transform="translate(-49.999995,-130.00002)">
					<path id="path11106-6" class="st0" d="M-160,1147.3c-2.2,0-4.4,0.6-6.4,1.7c-3.8,2.2-6.2,6.1-6.4,10.4c0,0,0,0,0,0.1
						c0,0,0,0.1,0,0.1v0.6v0.1h-0.5c-0.8,0-1.6,0.7-1.6,1.5v0.6h-0.1c-0.6,0-1,0.5-1,1.1v1c0,0.6,0.4,1.1,1,1.1h0.1v0.5
						c0,0.9,0.7,1.6,1.6,1.6h0.5v1c0,0,0,0.1,0,0.1v1.9v0.2c0,0.2,0.1,0.4,0.3,0.5c0.9,0.4,1.9,0.8,2.9,1.1v3.1
						c0,0.2,0.1,0.4,0.4,0.5c5.9,1.7,12.6,1.7,18.5,0c0.2-0.1,0.4-0.3,0.3-0.5v-3.2c1-0.3,2-0.7,2.9-1.1c0.2-0.1,0.3-0.3,0.3-0.5
						v-0.2v-1.9c0,0,0-0.1,0-0.1c0-0.3,0-0.6,0-1h0.6c0.8,0,1.6-0.7,1.6-1.6v-0.5h0.1c0.6,0,1-0.5,1-1.1v-1c0-0.6-0.4-1.1-1-1.1
						h-0.1v-0.6c0-0.8-0.7-1.5-1.6-1.5h-0.6v0c0-0.3,0-0.6,0-0.9c0,0,0-0.1,0-0.1c0-0.1,0-0.3,0-0.4c0,0,0-0.1,0-0.1
						c0,0,0-0.1,0-0.1c-0.5-4-2.8-7.5-6.3-9.6c0,0,0,0,0,0C-155.6,1147.9-157.8,1147.3-160,1147.3z M-160.6,1148.3v6
						c0,0.7,1,0.7,1,0v-6c1.9,0.1,3.7,0.6,5.4,1.5c0.5,0.3,0.9,0.6,1.3,0.9c-0.8,0.9-1.3,2.2-1.3,3.5c0,0.2,0.2,0.5,0.5,0.5
						c0.3,0,0.6-0.3,0.6-0.5c0-1,0.4-2,1.1-2.8c1.9,1.8,3.2,4.1,3.6,6.7c-3.5-1-7.4-1.5-11.3-1.6c-4.2,0-8.3,0.5-12,1.5c0,0,0,0,0,0
						c0.4-2.6,1.7-4.9,3.6-6.7c0.7,0.8,1.1,1.8,1.1,2.8c0,0.2,0.3,0.5,0.5,0.5c0.3,0,0.6-0.3,0.6-0.5c0-1.3-0.5-2.6-1.3-3.5
						c0.4-0.3,0.9-0.7,1.3-0.9C-164.3,1148.9-162.4,1148.4-160.6,1148.3z M-159.7,1157.6c3.9,0,7.9,0.6,11.4,1.7
						c0,0.4,0,0.8,0.1,1.3v7.7c-7.3,2.2-16.5,2.2-23.7,0v-8.1c0-0.3,0-0.6,0-0.9c0,0,0,0,0.1,0c0.1,0,0.1,0,0.2-0.1c0,0,0.1,0,0.1,0
						C-167.8,1158.1-163.8,1157.6-159.7,1157.6z M-173.4,1161.3h0.5v5.4h-0.5c-0.3,0-0.6-0.2-0.6-0.6v-1c0-0.3-0.2-0.5-0.5-0.5h-0.5
						c0,0,0-0.1,0-0.1v-1c0,0,0-0.1,0-0.1h0.5c0.3,0,0.5-0.2,0.5-0.5v-1.1C-174,1161.5-173.7,1161.3-173.4,1161.3z M-147.2,1161.3
						h0.6c0.3,0,0.6,0.2,0.6,0.5v1.1c0,0.3,0.2,0.5,0.5,0.5h0.5c0,0,0,0,0,0.1v1c0,0,0,0.1,0,0.1h-0.5c-0.3,0-0.5,0.2-0.5,0.5v1
						c0,0.4-0.3,0.6-0.6,0.6h-0.6v-0.6C-147.2,1164.5-147.2,1162.8-147.2,1161.3z M-171.9,1169.3c7.3,2.1,16.3,2.1,23.7,0v1.3
						c-7.3,3-16.5,3-23.7,0V1169.3z M-168.7,1172.8c5.5,1.5,11.7,1.5,17.2,0v2.5c-5.5,1.5-11.7,1.5-17.2,0V1172.8z"/>
				</g>
			</g>
		</g>
	</g>
</g>
</svg>
