<?xml version="1.0" encoding="utf-8"?>
<!-- Generator: Adobe Illustrator 20.1.0, SVG Export Plug-In . SVG Version: 6.00 Build 0)  -->
<svg version="1.1"
	 id="svg4475" xmlns:cc="http://creativecommons.org/ns#" xmlns:dc="http://purl.org/dc/elements/1.1/" xmlns:inkscape="http://www.inkscape.org/namespaces/inkscape" xmlns:rdf="http://www.w3.org/1999/02/22-rdf-syntax-ns#" xmlns:sodipodi="http://sodipodi.sourceforge.net/DTD/sodipodi-0.dtd" xmlns:svg="http://www.w3.org/2000/svg"
	 xmlns="http://www.w3.org/2000/svg" xmlns:xlink="http://www.w3.org/1999/xlink" x="0px" y="0px" viewBox="0 0 32 32"
	 style="enable-background:new 0 0 32 32;" xml:space="preserve">
<style type="text/css">
	.st0{fill:#FFFFFF;}
</style>
<g id="layer1" transform="translate(0,-1020.3622)">
	<g id="g10414" transform="translate(309.5948,-461.25192)">
		<g id="g15415" transform="translate(66.405195,515.25192)">
			<g id="g15417" transform="translate(-150,-49.999983)">
				<g id="g14600" transform="translate(-49.999995,-130.00002)">
					<path id="circle11644" class="st0" d="M-163.6,1147.4c-1.9,0-3.5,1.6-3.5,3.5c0,1.9,1.6,3.5,3.5,3.5s3.5-1.6,3.5-3.5
						C-160.1,1148.9-161.7,1147.4-163.6,1147.4z M-163.6,1148.4c0.8,0,1.5,0.4,2,1h-0.5c-0.1,0-0.1,0-0.2,0c-0.3,0-0.5,0.3-0.4,0.6
						c0,0.3,0.3,0.5,0.6,0.4c0,0,0,0,0,0h0.9c0,0.2,0.1,0.3,0.1,0.5c0,0.2,0,0.3-0.1,0.5h-0.4c-0.1,0-0.1,0-0.2,0
						c-0.3,0-0.5,0.3-0.5,0.6s0.3,0.5,0.6,0.5c-0.5,0.6-1.1,1-1.9,1c-0.2,0-0.5,0-0.7-0.1c0.2-0.2,0.3-0.5,0.1-0.7
						c-0.1-0.1-0.3-0.2-0.4-0.2h-0.9c0,0,0,0-0.1,0c-0.2-0.3-0.4-0.6-0.4-1h0.4c0.3,0,0.5-0.2,0.5-0.5s-0.2-0.5-0.5-0.5c0,0,0,0,0,0
						h-0.4C-165.8,1149.2-164.8,1148.4-163.6,1148.4z M-164.1,1149.4c-0.3,0-0.5,0.2-0.5,0.5c0,0.3,0.2,0.5,0.5,0.5s0.5-0.2,0.5-0.5
						C-163.6,1149.6-163.8,1149.4-164.1,1149.4z M-163.1,1151.4c-0.3,0-0.5,0.2-0.5,0.5c0,0.3,0.2,0.5,0.5,0.5s0.5-0.2,0.5-0.5
						C-162.6,1151.6-162.8,1151.4-163.1,1151.4z M-166.3,1157.1c-4.8,0-8.6,3.9-8.6,8.6s3.9,8.6,8.6,8.6c4.8,0,8.6-3.9,8.6-8.6
						S-161.5,1157.1-166.3,1157.1z M-150.1,1157.4c-2.8,0-5,2.2-5,5s2.2,5,5,5c2.8,0,5-2.2,5-5S-147.4,1157.4-150.1,1157.4z
						 M-166.3,1158.1c4.2,0,7.6,3.4,7.6,7.6c0,4.2-3.4,7.6-7.6,7.6c-4.2,0-7.6-3.4-7.6-7.6C-173.9,1161.5-170.5,1158.1-166.3,1158.1
						z M-150.1,1158.4c2.2,0,4,1.8,4,4s-1.8,4-4,4c-1,0-2-0.4-2.7-1c0.7-0.1,1.2-0.7,1.2-1.5c0-0.8-0.7-1.5-1.5-1.5
						c-0.4,0-0.7,0.2-1,0.4c0-0.1,0-0.2,0-0.4C-154.1,1160.1-152.3,1158.4-150.1,1158.4z M-151.6,1159.4c-0.3,0-0.5,0.2-0.5,0.5
						c0,0.3,0.2,0.5,0.5,0.5c0.3,0,0.5-0.2,0.5-0.5C-151.1,1159.6-151.3,1159.4-151.6,1159.4z M-167.8,1159.4
						c-0.2,0.1-0.4,0.3-0.3,0.5c0,0.3,0.2,0.5,0.5,0.5c0.1,0,0.2,0.1,0.2,0.2c0,0.1-0.1,0.2-0.2,0.2c-0.3,0-0.5,0.2-0.5,0.5
						s0.2,0.5,0.5,0.5c0,0,0,0,0,0c0.6,0,1.2-0.5,1.2-1.2c0-0.6-0.5-1.2-1.2-1.2C-167.7,1159.4-167.8,1159.4-167.8,1159.4z
						 M-163.3,1159.9c-0.2,0-0.4,0.1-0.6,0.2c-0.7,0.4-1,1.3-0.6,2c0.4,0.7,1.3,1,2,0.6c0.3-0.1,0.4-0.3,0.4-0.6
						c-0.1-0.3-0.3-0.4-0.6-0.4c-0.1,0-0.2,0.1-0.2,0.1c-0.2,0.1-0.5,0-0.7-0.2c-0.1-0.2-0.1-0.5,0.2-0.7c0.1-0.1,0.3-0.1,0.4,0
						c0.3,0.1,0.5,0,0.7-0.3s0-0.5-0.3-0.7c0,0,0,0-0.1,0C-162.8,1159.9-163,1159.8-163.3,1159.9z M-149,1160.4
						c-0.2,0-0.4,0.1-0.6,0.2c-0.7,0.4-1,1.3-0.6,2s1.3,1,2,0.6c0.3-0.1,0.4-0.3,0.4-0.6c-0.1-0.3-0.3-0.4-0.6-0.4
						c-0.1,0-0.2,0.1-0.2,0.1c-0.2,0.1-0.5,0-0.7-0.2c-0.1-0.2-0.1-0.5,0.2-0.7c0.1-0.1,0.3-0.1,0.4,0c0.3,0.1,0.5,0,0.7-0.3
						c0.1-0.3,0-0.5-0.3-0.7c0,0,0,0-0.1,0C-148.6,1160.4-148.8,1160.3-149,1160.4z M-170.6,1162.4c-0.3,0-0.5,0.2-0.5,0.5
						c0,0.3,0.2,0.5,0.5,0.5s0.5-0.2,0.5-0.5C-170.1,1162.6-170.3,1162.4-170.6,1162.4z M-153.1,1163.4c0.3,0,0.5,0.2,0.5,0.5
						c0,0.3-0.2,0.5-0.5,0.5c-0.3,0-0.5-0.2-0.5-0.5C-153.6,1163.6-153.4,1163.4-153.1,1163.4z M-166.7,1164.1c-1.1,0-2,0.9-2,2
						c0,1.1,0.9,2,2,2s2-0.9,2-2C-164.7,1165-165.6,1164.1-166.7,1164.1z M-149.6,1164.4c-0.3,0-0.5,0.2-0.5,0.5
						c0,0.3,0.2,0.5,0.5,0.5c0.3,0,0.5-0.2,0.5-0.5C-149.1,1164.6-149.3,1164.4-149.6,1164.4z M-162.1,1164.4
						c-0.8,0-1.5,0.7-1.5,1.5s0.7,1.5,1.5,1.5s1.5-0.7,1.5-1.5S-161.3,1164.4-162.1,1164.4z M-166.7,1165.1c0.6,0,1,0.4,1,1
						s-0.4,1-1,1s-1-0.4-1-1S-167.2,1165.1-166.7,1165.1z M-162.1,1165.4c0.3,0,0.5,0.2,0.5,0.5s-0.2,0.5-0.5,0.5
						c-0.3,0-0.5-0.2-0.5-0.5S-162.4,1165.4-162.1,1165.4z M-170.6,1166.6c-0.8,0-1.5,0.7-1.5,1.5s0.7,1.5,1.5,1.5s1.5-0.7,1.5-1.5
						S-169.8,1166.6-170.6,1166.6z M-170.6,1167.6c0.3,0,0.5,0.2,0.5,0.5s-0.2,0.5-0.5,0.5c-0.3,0-0.5-0.2-0.5-0.5
						S-170.9,1167.6-170.6,1167.6z M-162.6,1168.4c-0.3,0-0.5,0.2-0.5,0.5c0,0.3,0.2,0.5,0.5,0.5s0.5-0.2,0.5-0.5
						C-162.1,1168.6-162.3,1168.4-162.6,1168.4z M-153.1,1169.4c-1.9,0-3.5,1.4-3.9,3.2c-0.1,0.1-0.1,0.3,0,0.4
						c0,0.1-0.1,0.3-0.1,0.4c0,0.6,0.1,1.2,0.4,1.7c0,0.1,0.1,0.1,0.1,0.2c0.7,1.3,2,2.1,3.5,2.1c2.2,0,4-1.8,4-4
						S-150.9,1169.4-153.1,1169.4z M-165.8,1169.5c-0.7,0-1.3,0.6-1.3,1.3c0,0.7,0.6,1.3,1.3,1.3c0.3,0,0.5-0.2,0.5-0.5
						s-0.2-0.5-0.5-0.5l0,0c-0.2,0-0.3-0.1-0.3-0.3s0.1-0.3,0.3-0.3c0.1,0,0.2,0,0.2,0.1c0.2,0.2,0.5,0.2,0.7,0
						c0.1-0.1,0.2-0.3,0.1-0.4c0-0.1-0.1-0.2-0.1-0.3C-165.1,1169.7-165.5,1169.5-165.8,1169.5z M-153.1,1170.4c0.9,0,1.7,0.4,2.2,1
						h-2.7c-0.1,0-0.1,0-0.2,0c-0.3,0-0.5,0.3-0.4,0.6c0,0.3,0.3,0.5,0.6,0.4c0,0,0,0,0,0h3.3c0.1,0.3,0.2,0.6,0.2,1h-1.5
						c-0.1,0-0.1,0-0.2,0c-0.3,0-0.5,0.3-0.4,0.6c0,0.3,0.3,0.5,0.6,0.4c0,0,0,0,0,0h1.3c-0.4,1.2-1.5,2-2.8,2c-0.9,0-1.7-0.4-2.2-1
						h1.7c0.3,0,0.5-0.2,0.5-0.5s-0.2-0.5-0.5-0.5c0,0,0,0,0,0h-2.3c-0.1-0.3-0.2-0.7-0.2-1h0.5c0.3,0,0.5-0.2,0.5-0.5
						s-0.2-0.5-0.5-0.5c0,0,0,0,0,0h-0.3C-155.5,1171.2-154.4,1170.4-153.1,1170.4z"/>
				</g>
			</g>
		</g>
	</g>
</g>
</svg>
