<?xml version="1.0" encoding="utf-8"?>
<!-- Generator: Adobe Illustrator 20.1.0, SVG Export Plug-In . SVG Version: 6.00 Build 0)  -->
<svg version="1.1"
	 id="svg4475" xmlns:cc="http://creativecommons.org/ns#" xmlns:dc="http://purl.org/dc/elements/1.1/" xmlns:inkscape="http://www.inkscape.org/namespaces/inkscape" xmlns:rdf="http://www.w3.org/1999/02/22-rdf-syntax-ns#" xmlns:sodipodi="http://sodipodi.sourceforge.net/DTD/sodipodi-0.dtd" xmlns:svg="http://www.w3.org/2000/svg"
	 xmlns="http://www.w3.org/2000/svg" xmlns:xlink="http://www.w3.org/1999/xlink" x="0px" y="0px" viewBox="0 0 32 32"
	 style="enable-background:new 0 0 32 32;" xml:space="preserve">
<style type="text/css">
	.st0{fill:#FFFFFF;}
</style>
<g id="layer1" transform="translate(0,-1020.3622)">
	<g id="g10414" transform="translate(309.5948,-461.25192)">
		<g id="g15415" transform="translate(66.405195,515.25192)">
			<g id="g15417" transform="translate(-150,-49.999983)">
				<g id="g14600" transform="translate(-49.999995,-130.00002)">
					<path id="path11370" class="st0" d="M-159.9,1146.5l-0.3,0.3c-0.2,0.2-0.5,0.5-0.7,0.7c-2.7,2.9-4,6.5-4.2,10
						c-0.2,2.1,0,4.3,0.4,6.3l-1.8,0.5c-0.1-1.8-0.7-3.5-2.1-5l-0.4-0.4l-0.3,0.4c-2.8,2.9-2.4,7.2-1.4,10.2c0,0,0,0,0,0l-0.9,2
						c-0.1,0.2,0,0.5,0.2,0.7c0.1,0,0.1,0,0.2,0.1h0.6c-0.2,0.4-0.1,0.7,0,1c0.1,0.3,0.2,0.7,0.4,1c0.3,0.7,0.7,1.2,0.7,1.2l0.4,0.7
						l0.4-0.7c0,0,0.4-0.5,0.7-1.2c0.2-0.3,0.3-0.7,0.4-1s0.2-0.7,0-1.1h0.6c0.3,0,0.5-0.2,0.5-0.5c0-0.1,0-0.1,0-0.2l-0.8-2
						c0,0,0-0.1-0.1-0.1c0.1-0.3,0.2-0.7,0.3-1l3.3-0.9c0.1,0.3,0.2,0.5,0.3,0.8c0,0.1,0.1,0.2,0.1,0.3l-1.2,2
						c-0.1,0.2-0.1,0.5,0.2,0.7c0.1,0,0.2,0.1,0.3,0.1h1.9c-0.1,0.2-0.3,0.4-0.4,0.6c-0.2,0.5-0.1,1.1,0.1,1.7
						c0.2,0.6,0.4,1.2,0.7,1.8c0.6,1.2,1.2,2.3,1.2,2.3l0.4,0.7l0.4-0.7c0,0,0.7-1,1.3-2.2c0.3-0.6,0.6-1.2,0.8-1.8s0.3-1.1,0.1-1.7
						c-0.1-0.2-0.2-0.4-0.4-0.6h1.8c0.3,0,0.5-0.2,0.5-0.5c0-0.1,0-0.2-0.1-0.2l-1-2c0-0.1,0.1-0.2,0.1-0.3c0.1-0.4,0.3-0.7,0.4-1.1
						l3.1,0.8c0.1,0.3,0.1,0.5,0.2,0.8c0.1,0.3,0.2,0.5,0.3,0.8c0,0,0,0,0,0l-0.9,2c-0.1,0.2,0,0.5,0.2,0.7c0.1,0,0.1,0,0.2,0.1h0.6
						c-0.2,0.4-0.1,0.7,0,1c0.1,0.3,0.2,0.7,0.4,1c0.3,0.7,0.7,1.2,0.7,1.2l0.4,0.7l0.4-0.7c0,0,0.4-0.5,0.7-1.2
						c0.2-0.3,0.3-0.7,0.4-1s0.2-0.7,0-1.1h0.6c0.3,0,0.5-0.2,0.5-0.5c0-0.1,0-0.1,0-0.2l-0.8-2c0,0,0,0,0,0c0,0,0,0,0,0
						c1-3,1.4-7.2-1.4-10.2l-0.4-0.4l-0.3,0.4c-1.2,1.3-1.9,3-2.1,4.6l-1.8-0.5c0.4-1.9,0.5-3.9,0.4-5.9c-0.3-3.8-1.7-7.6-4.9-10.7
						L-159.9,1146.5z M-159.9,1148c1.3,1.4,2.2,2.9,2.9,4.5h-5.8C-162.2,1150.9-161.2,1149.4-159.9,1148z M-163.3,1153.5h6.8
						c0.5,1.3,0.7,2.7,0.8,4.1c0.3,3.6-0.5,7.3-1.7,10.3c-0.1,0.1-0.1,0.2-0.2,0.4h-4.8c0-0.1-0.1-0.2-0.1-0.3
						c-1.2-3-2-6.7-1.8-10.3C-164.1,1156.3-163.8,1154.9-163.3,1153.5z M-159.9,1155.2c-1,0-1.8,0.8-1.8,1.8c0,1,0.8,1.8,1.8,1.8
						s1.8-0.8,1.8-1.8C-158.1,1156.1-158.9,1155.2-159.9,1155.2z M-159.9,1156.2c0.4,0,0.8,0.4,0.8,0.8s-0.4,0.8-0.8,0.8
						c-0.4,0-0.8-0.3-0.8-0.8S-160.4,1156.2-159.9,1156.2z M-169,1160.7c1.9,2.6,1.6,6.1,0.7,8.7h-1.5
						C-170.7,1166.8-170.9,1163.3-169,1160.7z M-150.8,1160.7c1.9,2.6,1.7,6.1,0.8,8.7h-1.5
						C-152.5,1166.8-152.7,1163.3-150.8,1160.7z M-155.3,1164.5l2,0.5c0,0.4,0,0.8,0,1.2c0,0.3,0.1,0.5,0.1,0.8l-2.6-0.7
						C-155.6,1165.7-155.4,1165.1-155.3,1164.5z M-164.5,1164.9c0.2,0.6,0.4,1.2,0.6,1.8l-2.7,0.7c0.1-0.6,0.1-1.3,0.2-2
						L-164.5,1164.9z M-162.6,1169.4h5.2l0.5,1h-6.3L-162.6,1169.4z M-170,1170.4h2l0.4,1h-2.8L-170,1170.4z M-151.8,1170.4h2l0.4,1
						h-1.4h-1.4L-151.8,1170.4z M-160,1171.4L-160,1171.4c0.3,0,0.6,0,0.9,0.2c0.2,0.1,0.5,0.3,0.7,0.8c0,0.1,0.1,0.5-0.1,1
						c-0.2,0.5-0.4,1.1-0.7,1.7c-0.4,0.7-0.6,1-0.8,1.4c-0.2-0.4-0.4-0.6-0.8-1.4c-0.3-0.6-0.5-1.2-0.7-1.7s-0.1-0.9-0.1-1
						c0.2-0.5,0.5-0.7,0.7-0.8C-160.6,1171.4-160.3,1171.4-160,1171.4z M-169.1,1172.4c0.2,0,0.3,0,0.4,0.1s0.2,0.1,0.3,0.3
						c0-0.1,0,0.1-0.1,0.4c-0.1,0.2-0.2,0.5-0.3,0.8c-0.1,0.2-0.1,0.2-0.2,0.4c-0.1-0.2-0.1-0.2-0.2-0.4c-0.1-0.3-0.3-0.6-0.3-0.9
						c-0.1-0.2,0-0.4-0.1-0.3c0.1-0.2,0.2-0.3,0.3-0.3C-169.3,1172.4-169.2,1172.4-169.1,1172.4z M-150.9,1172.4
						c0.2,0,0.3,0,0.3,0.1s0.2,0.1,0.3,0.3c0-0.1,0,0.1-0.1,0.4c-0.1,0.2-0.2,0.5-0.4,0.8c-0.1,0.2-0.1,0.2-0.2,0.4
						c-0.1-0.2-0.1-0.2-0.2-0.4c-0.1-0.3-0.3-0.6-0.3-0.9c-0.1-0.2-0.1-0.4-0.1-0.3c0.1-0.2,0.2-0.3,0.3-0.3
						C-151.2,1172.4-151.1,1172.4-150.9,1172.4z"/>
				</g>
			</g>
		</g>
	</g>
</g>
</svg>
