<?xml version="1.0" encoding="utf-8"?>
<!-- Generator: Adobe Illustrator 20.1.0, SVG Export Plug-In . SVG Version: 6.00 Build 0)  -->
<svg version="1.1" id="Warstwa_1" xmlns="http://www.w3.org/2000/svg" xmlns:xlink="http://www.w3.org/1999/xlink" x="0px" y="0px"
	 viewBox="0 0 375 423" style="enable-background:new 0 0 375 423;" xml:space="preserve">
<style type="text/css">
	.st0{fill:#1CA48F;}
	.st1{fill:#FEFEFE;}
	.st2{fill:#6CC7C1;}
	.st3{fill:#72C8C0;}
	.st4{fill:#1CA590;}
</style>
<g>
	<path class="st0" d="M366.2,3.7c0,4.2,0,8.4,0,12.5c-2.4,18.4-2.5,37-3,55.5c-1.2,45.1-6.2,89.9-10,134.8
		c-3.5,40.1-7.3,80.3-11.1,120.4c-1.3,13.5-2.7,27-4.3,40.4c-0.9,7.3-4.5,11.4-11.2,13.2c-44.3,11.6-86.9,29.7-133,34
		c-1.1,0.1-2,0.5-2.9,1c-3.5,0-7,0-10.5,0C135,410,92.6,393.3,48.9,382c-10.5-2.7-15.3-7.8-16.3-19.2c-4.9-54-9.5-108.1-14.5-162.1
		c-3-33.2-6.3-66.5-8.6-99.8C7.7,73.6,7.4,46.2,5.7,18.8c0-16.1,0-16.1,15.8-16.1c111.2,0,222.3,0,333.5,0
		C358.7,2.7,362.6,1.8,366.2,3.7z"/>
	<path class="st1" d="M132,217.2c-5.9,0.6-2.7,4.7-2.4,7.1c3.8,30.3,7.9,60.7,11.9,91c0.4,3.1,1.6,6.1,0,9.7
		c-14.6-4.1-29.2-8.4-44-12.3c-5.5-1.4-5.5-5.3-5.9-9.5c-3.2-35.3-6.5-70.6-9.6-106c-3.2-35.7-6-71.4-9.6-107
		c-0.8-7.8,1.2-9.3,8.5-9.2c34.4,0.2,68.9-0.1,103.3-0.2c3.9-4.4,9.1-4.7,14.4-4.7c28.9-0.2,57.8-0.4,86.7,0.1
		c14.3,0.2,16,2.8,15.2,16.9c-2.1,38.2-5.5,76.3-8.8,114.5c-1.1,13.1-2.4,14.6-15.3,16.5c-11.2,1.6-13.5,4.6-11.5,16.2
		c3.5,20.3,8.8,40.1,12.3,60.4c2.3,13.2,1,15.4-12,19.8c-11.2,3.7-22.7,6.8-34.2,9.4c-11.6,2.6-16.6-0.5-17.8-12.2
		c-2.4-23.2-4.4-46.4-6.7-69.6c-0.1-0.7,0-1.4-0.1-2.1c-1.1-20.3-8.7-27.5-29.6-27.9C161.9,217.6,146.9,218.9,132,217.2z"/>
	<path class="st2" d="M132,217.2c23.3-1.3,46.6,0.1,69.8,0.4c6.1,0.1,7.3,3.1,7.8,8.4c2.6,29.4,5.6,58.8,8.3,88.3
		c1.3,13.6,1.1,13.6,13.8,10c11.4-3.2,22.7-6.5,34.2-9.4c6-1.5,8.4-3.7,6.8-10.8c-5.7-25.4-10.4-51.1-15.9-76.6
		c-1.4-6.6-0.9-9.4,6.8-9.6c21.7-0.7,22.1-1,23.9-22.2c3.1-35.7,5.4-71.4,8.5-107.1c0.7-7.7-3.2-7.6-8.6-7.6
		c-34.4,0-68.9-0.2-103.3-0.3c0-12.3,0-24.6,0.2-36.9c0-3.6-1.1-7.6,2.3-10.6c17,1.6,34.1,0.5,51.1,0.6c28.2,0.2,56.4,0,84.6,0.1
		c3.4,0,7-0.9,10.2,1c0.7,23.4-3.3,46.4-4.8,69.6c-1.9,29.8-4.9,59.5-7.5,89.2c-2.5,29.1-5.1,58.1-7.6,87.2
		c-1.7,20.1-3.7,40.1-4.7,60.2c-0.4,7.7-3.2,11.1-10.3,13c-34.2,9.3-68.5,18.8-102.5,28.7c-8.5,2.5-11,0.8-10.9-8.2
		c0.3-47.7-0.1-95.4,0.4-143.1c0.1-10-2.9-13.4-13-13.1C158.4,218.9,145.1,219.8,132,217.2z"/>
	<path class="st3" d="M332.6,35.1c-44.2,0-88.4,0-132.6,0c-4.5,0-9.1,0.6-13.3-1.7c46.1-0.1,92.1-0.2,138.2-0.3
		C327.6,33,330.5,32.7,332.6,35.1z"/>
	<path class="st2" d="M184.2,125.2c20.2-0.1,40.4,0,60.5-0.3c6.6-0.1,8.5,2,7.4,8.5c-1.5,9.6-2.2,19.3-2.9,29.1
		c-0.4,4.9-1.8,7.8-7.3,7.8c-37.6,0.1-75.1,0.3-112.7,0.4c-1.2,0-2.4-1.1-3.6-1.6c2.2-5.4,7.1-4.9,11.4-5.1
		c8.6-0.5,17.3-0.1,25.9-0.3c12.7-0.4,15.6-3.5,16.4-16.1C179.8,140,177,131.5,184.2,125.2z"/>
	<path class="st4" d="M184.2,125.2c0,10.4-0.5,20.8,0.3,31.2c0.8,10.4-3.5,13-13.2,12.6c-15.2-0.6-30.5,0-45.7,0
		c-3.2-12.9-1.1-26.2-2.9-39.2c-0.8-5.5,3-5.1,6.5-5.1C147.6,125,165.9,125.1,184.2,125.2z"/>
</g>
</svg>
